<?xml version="1.0" encoding="UTF-8" standalone="no"?> <!-- Created with Vectornator for iOS (http://vectornator.io/) --><!DOCTYPE svg PUBLIC "-//W3C//DTD SVG 1.1//EN" "http://www.w3.org/Graphics/SVG/1.1/DTD/svg11.dtd">
<svg style="fill-rule:evenodd;clip-rule:evenodd;stroke-linecap:round;stroke-linejoin:round;" xmlns:vectornator="http://vectornator.io" xmlns:xlink="http://www.w3.org/1999/xlink" xmlns="http://www.w3.org/2000/svg" xml:space="preserve" version="1.1" viewBox="0 0 64 64">
<metadata>
<vectornator:setting key="DynamicGuides" value="1"/>
<vectornator:setting key="Units" value="Points"/>
<vectornator:setting key="GuidesVisible" value="1"/>
<vectornator:setting key="RulersVisible" value="1"/>
<vectornator:setting key="SnapToGuides" value="1"/>
<vectornator:setting key="GridSpacing" value="36"/>
</metadata>
<defs/>
<g id="Untitled" vectornator:layerName="Untitled">
<g opacity="1">
<path d="M13+37C15.851+37+18+35.71+18+34C18+32.29+15.851+31+13+31C10.149+31+8+32.29+8+34C8+35.71+10.149+37+13+37ZM13+33C14.936+33+16+33.751+16+34C16+34.249+14.936+35+13+35C11.064+35+10+34.249+10+34C10+33.751+11.064+33+13+33Z" opacity="1" fill="#fdf8f8"/>
<path d="M30.6+53.2L28.2+51.4C25.794+49.594+22.205+49.595+19.801+51.4L18.383+52.463C17.458+50.96+15.822+50+14+50C13.679+50+13.377+50.154+13.188+50.416C13+50.677+12.949+51.012+13.051+51.317L13.946+54L13.051+56.684C12.948+56.989+13+57.324+13.188+57.585C13.377+57.846+13.679+58+14+58C15.822+58+17.459+57.039+18.383+55.537L19.8+56.6C21.003+57.503+22.494+58+24+58C25.506+58+26.997+57.502+28.199+56.6L30.599+54.8C30.851+54.611+30.999+54.315+30.999+54C30.999+53.685+30.852+53.389+30.6+53.2ZM15.517+55.614L15.949+54.317C16.018+54.111+16.018+53.89+15.949+53.684L15.517+52.387C16.153+52.735+16.663+53.298+16.941+54.001C16.663+54.702+16.153+55.266+15.517+55.614ZM26.999+55C25.282+56.29+22.719+56.291+21+55L19.667+54L21.001+53C22.718+51.71+25.281+51.709+27+53L28.333+54L26.999+55Z" opacity="1" fill="#fdf8f8"/>
<path d="M46+1C40.12+1+29+2.045+29+6L29+27.37C26.743+27.125+24.369+27+22+27C11.564+27+1+29.404+1+34L1+56C1+60.596+11.564+63+22+63C32.436+63+43+60.596+43+56L43+54.923C43.989+54.969+44.99+55+46+55C51.88+55+63+53.955+63+50L63+6C63+2.045+51.88+1+46+1ZM46+3C55.743+3+61+5.129+61+6C61+6.871+55.743+9+46+9C36.257+9+31+6.871+31+6C31+5.129+36.257+3+46+3ZM22+29C33.771+29+41+31.912+41+34C41+36.088+33.771+39+22+39C10.229+39+3+36.088+3+34C3+31.912+10.229+29+22+29ZM43+34C43+33.047+42.54+32.189+41.726+31.427C42.275+31.15+42.879+31+43.5+31L44.5+31C45.283+31+46.042+31.229+46.693+31.664L47.197+32C48.177+32.654+49.32+33+50.5+33C51.68+33+52.822+32.654+53.803+32L53.945+31.905C53.494+35.891+50.105+39+46+39C44.955+39+43.951+38.793+43+38.406L43+34ZM52.693+30.336C51.39+31.205+49.609+31.205+48.306+30.336L47.803+30C46.823+29.346+45.68+29+44.5+29L43.5+29C42.32+29+41.178+29.346+40.197+30L39.931+30.177C39.399+29.89+38.808+29.622+38.165+29.374C38.92+25.69+42.159+23+46+23C49.918+23+53.18+25.833+53.863+29.556L52.693+30.336ZM8+59.255L8+45.325C11.787+46.396+16.792+47+22+47C27.209+47+32.214+46.396+36+45.325L36+59.255C32.719+60.258+27.94+61+22+61C16.06+61+11.281+60.258+8+59.255ZM38+58.536L38+43.969C38+43.647+37.845+43.344+37.582+43.156C37.319+42.968+36.983+42.919+36.678+43.022C32.98+44.279+27.631+45+22+45C16.371+45+11.021+44.279+7.322+43.022C7.016+42.918+6.68+42.982+6.418+43.171C6.155+43.359+6+43.678+6+44L6+58.536C4.053+57.708+3+56.795+3+56L3+37.164C6.549+39.692+14.307+41+22+41C29.693+41+37.451+39.692+41+37.164L41+56C41+56.795+39.947+57.708+38+58.536ZM46+53C44.989+53+43.988+52.968+43+52.921L43+44.923C43.989+44.969+44.99+45+46+45C50.34+45+57.529+44.429+61+42.541L61+50C61+50.871+55.743+53+46+53ZM46+43C44.989+43+43.988+42.968+43+42.921L43+40.528C43.965+40.832+44.966+41+46+41C51.514+41+56+36.514+56+31C56+25.486+51.514+21+46+21C41.283+21+37.298+24.251+36.266+28.735C34.686+28.274+32.903+27.903+31+27.625L31+16.541C34.471+18.429+41.66+19+46+19C50.34+19+57.529+18.429+61+16.541L61+40C61+40.871+55.743+43+46+43ZM46+17C36.257+17+31+14.871+31+14L31+8.541C34.471+10.429+41.66+11+46+11C50.34+11+57.529+10.429+61+8.541L61+14C61+14.871+55.743+17+46+17Z" opacity="1" fill="#fdf8f8"/>
</g>
</g>
</svg>
