<?xml version="1.0" encoding="UTF-8" standalone="no"?> <!-- Created with Vectornator for iOS (http://vectornator.io/) --><!DOCTYPE svg PUBLIC "-//W3C//DTD SVG 1.1//EN" "http://www.w3.org/Graphics/SVG/1.1/DTD/svg11.dtd">
<svg style="fill-rule:evenodd;clip-rule:evenodd;stroke-linecap:round;stroke-linejoin:round;" xmlns:vectornator="http://vectornator.io" xmlns:xlink="http://www.w3.org/1999/xlink" xmlns="http://www.w3.org/2000/svg" xml:space="preserve" version="1.1" viewBox="0 0 512 512">
<metadata>
<vectornator:setting key="DynamicGuides" value="1"/>
<vectornator:setting key="Units" value="Points"/>
<vectornator:setting key="GuidesVisible" value="1"/>
<vectornator:setting key="RulersVisible" value="1"/>
<vectornator:setting key="SnapToGuides" value="1"/>
<vectornator:setting key="GridSpacing" value="36"/>
</metadata>
<defs/>
<g id="Untitled" vectornator:layerName="Untitled">
<path d="M256+16C123.664+16+16+123.664+16+256C16+388.336+123.664+496+256+496C388.336+496+496+388.336+496+256C496+123.664+388.336+16+256+16ZM256+480C132.484+480+32+379.516+32+256C32+132.484+132.484+32+256+32C379.516+32+480+132.484+480+256C480+379.516+379.516+480+256+480Z" opacity="1" fill="#fffcfc"/>
<path d="M122.891+117.766L111.8+106.234C106.948+110.914+102.276+115.859+97.925+120.945L110.081+131.352C114.1+126.648+118.414+122.078+122.891+117.766Z" opacity="1" fill="#fffcfc"/>
<path d="M48.656+239.367L64.609+240.633C67.356+206.307+79.3185+173.359+99.234+145.266L86.172+136.016C64.5974+166.464+51.6367+202.169+48.656+239.367Z" opacity="1" fill="#fffcfc"/>
<path d="M368+98.633C368.001+80.9657+354.704+66.1293+337.142+64.2029C319.581+62.2764+303.384+73.8776+299.555+91.125C298.204+97.205+297.119+103.344+296.003+109.475C282.974+105.89+269.516+104.1+256.003+104.155L256.003+64L240+64L240+160C239.982+168.652+237.177+177.068+232+184C229.672+187.102+226.903+189.847+223.781+192.148C213.867+199.461+208.211+211.68+208.664+224.875L215.992+408.289C216.145+412.41+214.604+416.413+211.727+419.367C205.666+425.336+195.936+425.336+189.875+419.367C186.995+416.406+185.453+412.395+185.609+408.267L191.336+224.829C191.789+211.681+186.136+199.462+176.211+192.149C173.091+189.845+170.325+187.097+168+183.992C162.822+177.063+160.017+168.65+160+160L160+64L144+64L144+153.492C114.164+185.925+99.9304+229.742+105.01+273.517C110.089+317.292+133.978+356.686+170.447+381.425L169.625+407.742C169.236+419.14+175.097+429.842+184.911+435.651C194.725+441.461+206.927+441.451+216.733+435.627C226.538+429.803+232.383+419.092+231.977+407.695L231.91+406.022C256.863+410.127+282.449+407.822+306.266+399.322L305.727+406.682C304.948+418.045+310.428+428.929+320.021+435.069C329.614+441.21+341.793+441.629+351.785+436.164C361.778+430.698+367.995+420.218+368+408.828L368+358.508C421.333+300.575+421.333+211.425+368+153.492L368+98.633ZM171.052+362.044C114.097+316.663+103.211+234.374+146.405+175.744C149.723+187.497+156.873+197.804+166.719+205.028C172.391+209.208+175.619+216.411+175.352+224.31L171.052+362.044ZM307.56+381.654C283.489+391.876+256.895+394.605+231.249+389.484L224.649+224.284C224.384+216.409+227.61+209.206+233.274+205.026C237.654+201.801+241.537+197.952+244.8+193.6C252.051+183.897+255.978+172.113+256+160L256+120.136C268.648+120.082+281.239+121.84+293.389+125.358C289.857+148.872+288.056+172.613+288+196.391L288+280C288+284.418+291.582+288+296+288L314.422+288L307.56+381.654ZM352+408.828C351.991+417.204+345.204+423.991+336.828+424C332.629+424.001+328.617+422.261+325.748+419.195C322.879+416.128+321.409+412.01+321.688+407.82L331.008+280.586C331.171+278.369+330.404+276.184+328.89+274.555C327.377+272.926+325.254+272+323.031+272L304+272L304+196.391C304.004+162.152+307.753+128.015+315.18+94.591C317.238+85.3107+325.953+79.0681+335.402+80.1054C344.851+81.1427+352.004+89.1272+352+98.633L352+408.828ZM392+256C392.013+283.479+383.64+310.307+368+332.9L368+179.1C383.64+201.693+392.013+228.521+392+256Z" opacity="1" fill="#fffcfc"/>
<path d="M176+64L192+64L192+152L176+152L176+64Z" opacity="1" fill="#fffcfc"/>
<path d="M208+64L224+64L224+152L208+152L208+64Z" opacity="1" fill="#fffcfc"/>
</g>
</svg>
