<?xml version="1.0" encoding="UTF-8" standalone="no"?> <!-- Created with Vectornator for iOS (http://vectornator.io/) --><!DOCTYPE svg PUBLIC "-//W3C//DTD SVG 1.1//EN" "http://www.w3.org/Graphics/SVG/1.1/DTD/svg11.dtd">
<svg style="fill-rule:evenodd;clip-rule:evenodd;stroke-linecap:round;stroke-linejoin:round;" xmlns:vectornator="http://vectornator.io" xmlns:xlink="http://www.w3.org/1999/xlink" xmlns="http://www.w3.org/2000/svg" xml:space="preserve" version="1.1" viewBox="0 0 511 511">
<metadata>
<vectornator:setting key="DynamicGuides" value="1"/>
<vectornator:setting key="Units" value="Points"/>
<vectornator:setting key="GuidesVisible" value="1"/>
<vectornator:setting key="RulersVisible" value="1"/>
<vectornator:setting key="SnapToGuides" value="1"/>
<vectornator:setting key="GridSpacing" value="36"/>
</metadata>
<defs/>
<g id="Untitled" vectornator:layerName="Untitled">
<path d="M391.5+63C404.458+63+415+52.458+415+39.5L415+23.5C415+10.542+404.458+0+391.5+0L119.5+0C106.542+0+96+10.542+96+23.5L96+39.5C96+52.458+106.542+63+119.5+63L128+63L128+448L119.5+448C106.542+448+96+458.542+96+471.5L96+487.5C96+500.458+106.542+511+119.5+511L391.5+511C404.458+511+415+500.458+415+487.5L415+471.5C415+458.542+404.458+448+391.5+448L383+448L383+63L391.5+63ZM368+329.146L143+366.646L143+341.853L368+304.353L368+329.146ZM368+289.146L143+326.646L143+301.853L368+264.353L368+289.146ZM368+249.146L143+286.646L143+261.853L368+224.353L368+249.146ZM368+209.146L143+246.646L143+221.853L368+184.353L368+209.146ZM368+169.146L143+206.646L143+181.853L368+144.353L368+169.146ZM143+381.854L368+344.354L368+369.147L143+406.647L143+381.854ZM368+129.146L143+166.646L143+141.853L368+104.353L368+129.146ZM143+421.854L368+384.354L368+409.147L143+446.647L143+421.854ZM368+89.146L143+126.646L143+101.853L368+64.353L368+89.146ZM111+39.5L111+23.5C111+18.813+114.813+15+119.5+15L391.5+15C396.187+15+400+18.813+400+23.5L400+39.5C400+44.187+396.187+48+391.5+48L119.5+48C114.813+48+111+44.187+111+39.5ZM284.879+63L143+86.646L143+63L284.879+63ZM400+471.5L400+487.5C400+492.187+396.187+496+391.5+496L119.5+496C114.813+496+111+492.187+111+487.5L111+471.5C111+466.813+114.813+463+119.5+463L135.469+463C135.476+463+135.483+463.001+135.491+463.001C135.495+463.001+135.499+463+135.503+463L391.5+463C396.187+463+400+466.813+400+471.5ZM226.121+448L368+424.354L368+448L226.121+448Z" opacity="1" fill="#f9f6f6"/>
</g>
</svg>
