<?xml version="1.0" encoding="UTF-8" standalone="no"?> <!-- Created with Vectornator for iOS (http://vectornator.io/) --><!DOCTYPE svg PUBLIC "-//W3C//DTD SVG 1.1//EN" "http://www.w3.org/Graphics/SVG/1.1/DTD/svg11.dtd">
<svg style="fill-rule:evenodd;clip-rule:evenodd;stroke-linecap:round;stroke-linejoin:round;" xmlns:vectornator="http://vectornator.io" xmlns:xlink="http://www.w3.org/1999/xlink" xmlns="http://www.w3.org/2000/svg" xml:space="preserve" version="1.1" viewBox="0 0 512 512">
<metadata>
<vectornator:setting key="DynamicGuides" value="1"/>
<vectornator:setting key="Units" value="Points"/>
<vectornator:setting key="GuidesVisible" value="1"/>
<vectornator:setting key="RulersVisible" value="1"/>
<vectornator:setting key="SnapToGuides" value="1"/>
<vectornator:setting key="GridSpacing" value="36"/>
</metadata>
<defs/>
<g id="Untitled" vectornator:layerName="Untitled">
<path d="M501.333+277.333L448+277.333L448+234.666L480+234.666C485.888+234.666+490.667+229.887+490.667+223.999L490.667+159.999L490.667+96C490.667+90.112+485.888+85.333+480+85.333L448+85.333L448+74.667C448+57.024+433.643+42.667+416+42.667C398.357+42.667+384+57.024+384+74.667L384+85.334L128+85.334L128+74.667C128+57.024+113.643+42.667+96+42.667C78.357+42.667+64+57.024+64+74.667L64+85.334L32+85.334C26.112+85.334+21.333+90.113+21.333+96.001L21.333+160.001L21.333+224.001C21.333+229.889+26.112+234.668+32+234.668L64+234.668L64+277.335L10.667+277.335C4.779+277.333+0+282.112+0+288L0+330.667C0+336.555+4.779+341.334+10.667+341.334L21.334+341.334L21.334+458.667C21.334+464.555+26.113+469.334+32.001+469.334L74.668+469.334C80.556+469.334+85.335+464.555+85.335+458.667L85.335+341.333L426.668+341.333L426.668+458.666C426.668+464.554+431.447+469.333+437.335+469.333L480+469.333C485.888+469.333+490.667+464.554+490.667+458.666L490.667+341.333L501.334+341.333C507.222+341.333+512.001+336.554+512.001+330.666L512.001+288C512+282.112+507.221+277.333+501.333+277.333ZM405.333+74.667C405.333+68.779+410.133+64+416+64C421.867+64+426.667+68.779+426.667+74.667L426.667+85.334L405.334+85.334L405.334+74.667L405.333+74.667ZM85.333+74.667C85.333+68.779+90.133+64+96+64C101.867+64+106.667+68.779+106.667+74.667L106.667+85.334L85.333+85.334L85.333+74.667ZM42.667+106.667L74.667+106.667L117.334+106.667L394.667+106.667L437.334+106.667L469.334+106.667L469.334+149.334L42.667+149.334L42.667+106.667ZM42.667+213.333L42.667+170.666L469.334+170.666L469.334+213.333L437.334+213.333L394.667+213.333L117.333+213.333L74.667+213.333L42.667+213.333ZM426.667+234.667L426.667+277.334L405.334+277.334L405.334+234.667L426.667+234.667ZM384+234.667L384+277.334L128+277.334L128+234.667L384+234.667ZM106.667+234.667L106.667+277.334L85.333+277.334L85.333+234.667L106.667+234.667ZM64+448L42.667+448L42.667+341.333L64+341.333L64+448ZM469.333+448L448+448L448+341.333L469.333+341.333C469.333+341.333+469.333+448+469.333+448ZM490.667+320L480+320L437.333+320L74.667+320L32+320L21.333+320L21.333+298.667L74.666+298.667L117.333+298.667L394.666+298.667L437.333+298.667L490.666+298.667L490.666+320L490.667+320Z" opacity="1" fill="#fdf9f9"/>
</g>
</svg>
