<?xml version="1.0" encoding="UTF-8" standalone="no"?> <!-- Created with Vectornator for iOS (http://vectornator.io/) --><!DOCTYPE svg PUBLIC "-//W3C//DTD SVG 1.1//EN" "http://www.w3.org/Graphics/SVG/1.1/DTD/svg11.dtd">
<svg style="fill-rule:evenodd;clip-rule:evenodd;stroke-linecap:round;stroke-linejoin:round;" xmlns:vectornator="http://vectornator.io" xmlns:xlink="http://www.w3.org/1999/xlink" xmlns="http://www.w3.org/2000/svg" xml:space="preserve" version="1.1" viewBox="0 0 480 480">
<metadata>
<vectornator:setting key="DynamicGuides" value="1"/>
<vectornator:setting key="Units" value="Points"/>
<vectornator:setting key="GuidesVisible" value="1"/>
<vectornator:setting key="RulersVisible" value="1"/>
<vectornator:setting key="SnapToGuides" value="1"/>
<vectornator:setting key="GridSpacing" value="36"/>
</metadata>
<defs/>
<g id="Untitled" vectornator:layerName="Untitled">
<path d="M118.031+145.785C114.504+144.891+112.027+141.727+112+138.09L112+8C112+3.58203+108.418+4.76837e-07+104+4.76837e-07L56+4.76837e-07C51.582+4.76837e-07+48+3.58203+48+8L48+138.09C47.9727+141.73+45.4883+144.891+41.9609+145.785C17.2539+152.184-0.00390577+174.477+4.76837e-07+200L4.76837e-07+472C4.76837e-07+476.418+3.58203+480+8+480L152+480C156.418+480+160+476.418+160+472L160+200C160+174.477+142.742+152.18+118.031+145.785ZM64+16L96+16L96+32L64+32L64+16ZM144+376L16+376L16+264L144+264L144+376ZM16+464L16+392L144+392L144+464L16+464ZM144+248L16+248L16+200C15.9922+181.766+28.3164+165.836+45.9688+161.266C56.5547+158.547+63.9688+149.02+64+138.09L64+48L96+48L96+138.09C96.0195+149.023+103.434+158.566+114.023+161.289C131.668+165.855+143.996+181.773+144+200L144+248Z" opacity="1" fill="#fbf7f7"/>
<path d="M290.23+178.887C278.309+159.816+271.992+137.777+272+115.289L272+8C272+3.58203+268.418+0+264+0L216+0C211.582+0+208+3.58203+208+8L208+115.289C208.008+137.77+201.699+159.801+189.785+178.863L188.672+180.625C175.156+202.238+167.992+227.219+168+252.711L168+472C168+476.418+171.582+480+176+480L304+480C308.418+480+312+476.418+312+472L312+252.711C312.004+227.211+304.836+202.223+291.313+180.602L290.23+178.887ZM224+16L256+16L256+32L224+32L224+16ZM296+464L184+464L184+252.711C183.992+230.23+190.301+208.199+202.215+189.137L203.328+187.375C216.844+165.762+224.008+140.781+224+115.289L224+48L256+48L256+115.289C255.996+140.789+263.164+165.777+276.687+187.398L277.77+189.113C289.691+208.184+296.008+230.223+296+252.711L296+464Z" opacity="1" fill="#fbf7f7"/>
<path d="M240+280C217.91+280+200+297.91+200+320C200+342.09+217.91+360+240+360C262.09+360+280+342.09+280+320C279.973+297.918+262.082+280.027+240+280ZM240+344C226.746+344+216+333.254+216+320C216+306.746+226.746+296+240+296C253.254+296+264+306.746+264+320C264+333.254+253.254+344+240+344Z" opacity="1" fill="#fbf7f7"/>
<path d="M433.688+76.8398L433.602+76.8008C432.598+76.0937+432+74.9453+432+73.7187L432+8C432+3.58203+428.418-2.6077e-07+424-2.6077e-07L376-2.6077e-07C371.582-2.6077e-07+368+3.58203+368+8L368+73.7031C368+74.9297+367.402+76.0781+366.398+76.7852L366.305+76.8398C337.344+96.1055+319.957+128.594+320+163.375L320+472C320+476.418+323.582+480+328+480L472+480C476.418+480+480+476.418+480+472L480+163.375C480.039+128.594+462.652+96.1016+433.688+76.8398ZM384+16L416+16L416+32L384+32L384+16ZM464+464L336+464L336+163.375C335.965+134+350.621+106.555+375.055+90.2461L375.199+90.1523C380.703+86.4883+384.004+80.3125+384+73.7031L384+48L416+48L416+73.7031C415.996+80.3125+419.297+86.4883+424.801+90.1523L424.945+90.2383C449.375+106.555+464.031+134+464+163.375L464+464Z" opacity="1" fill="#fbf7f7"/>
<path d="M360+208C355.582+208+352+211.582+352+216L352+424C352+428.418+355.582+432+360+432L440+432C444.418+432+448+428.418+448+424L448+216C448+211.582+444.418+208+440+208L360+208ZM432+416L368+416L368+224L432+224L432+416Z" opacity="1" fill="#fbf7f7"/>
</g>
</svg>
