<?xml version="1.0" encoding="UTF-8" standalone="no"?> <!-- Created with Vectornator for iOS (http://vectornator.io/) --><!DOCTYPE svg PUBLIC "-//W3C//DTD SVG 1.1//EN" "http://www.w3.org/Graphics/SVG/1.1/DTD/svg11.dtd">
<svg style="fill-rule:evenodd;clip-rule:evenodd;stroke-linecap:round;stroke-linejoin:round;" xmlns:vectornator="http://vectornator.io" xmlns:xlink="http://www.w3.org/1999/xlink" xmlns="http://www.w3.org/2000/svg" xml:space="preserve" version="1.1" viewBox="0 0 512 512">
<metadata>
<vectornator:setting key="DynamicGuides" value="1"/>
<vectornator:setting key="Units" value="Points"/>
<vectornator:setting key="GuidesVisible" value="1"/>
<vectornator:setting key="RulersVisible" value="1"/>
<vectornator:setting key="SnapToGuides" value="1"/>
<vectornator:setting key="GridSpacing" value="36"/>
</metadata>
<defs/>
<g id="Untitled" vectornator:layerName="Untitled">
<path d="M512+275.694C512+254.817+500.905+235.724+483.705+225.051C484.768+220.558+485.314+215.928+485.314+211.271C485.314+195.374+479.124+180.429+467.883+169.186C456.641+157.944+441.694+151.754+425.797+151.754C421.139+151.754+416.51+152.3+412.016+153.364C403.927+140.331+391.002+130.808+376.131+126.957C376.634+123.351+376.892+119.697+376.892+116.006C376.892+95.129+368.763+75.501+354.001+60.738C339.239+45.975+319.611+37.845+298.732+37.845C291.065+37.845+283.46+38.969+276.189+41.148C262.743+16.302+236.365+8.34465e-07+207.368+8.34465e-07C178.371+8.34465e-07+151.994+16.302+138.548+41.146C131.277+38.968+123.672+37.844+116.005+37.844C95.13+37.844+75.502+45.974+60.733+60.737C40.222+81.253+33.104+111.445+41.181+138.53C16.316+151.972+4.82798e-06+178.366+4.82798e-06+207.427C4.82798e-06+225.497+7.038+242.484+19.816+255.259C32.591+268.031+49.574+275.065+67.639+275.065L67.653+275.065L128.016+275.052L210.748+357.785L210.748+512L309.942+512L309.942+401.698L384.823+327.808L459.913+327.792C488.633+327.786+512+304.415+512+275.694ZM67.646+245.187C67.643+245.187+67.641+245.187+67.638+245.187C57.554+245.187+48.072+241.26+40.94+234.13C33.806+226.998+29.877+217.515+29.877+207.37C29.877+185.974+44.243+166.889+64.813+160.961L82.808+155.774L73.752+139.382C63.4+120.645+66.735+96.993+81.859+81.866C90.982+72.745+103.108+67.723+116.004+67.723C124.22+67.723+132.298+69.796+139.362+73.716L155.764+82.819L160.964+64.795C166.896+44.237+185.977+29.878+207.366+29.878C228.756+29.878+247.838+44.236+253.771+64.795L258.971+82.816L275.373+73.716C282.439+69.795+290.516+67.722+298.731+67.722C311.629+67.722+323.754+72.744+332.872+81.863C341.99+90.982+347.012+103.107+347.012+116.004C347.012+119.815+346.576+123.558+345.719+127.193C331.225+131.189+318.655+140.59+310.729+153.362C306.234+152.298+301.606+151.752+296.948+151.752C281.053+151.752+266.107+157.942+254.859+169.185C240.09+183.956+234.439+205.315+239.068+225.033C230.92+230.084+224.143+237.026+219.262+245.154L67.646+245.187ZM170.259+275.043L210.747+275.034L210.747+315.531L170.259+275.043ZM240.625+482.122L240.625+322.886C247.485+326.125+255.034+327.833+262.847+327.833L262.857+327.833L280.063+327.829L280.063+482.121L240.625+482.121L240.625+482.122ZM309.941+359.724L309.941+327.824L342.276+327.817L309.941+359.724ZM459.906+297.914L262.851+297.956C262.849+297.956+262.849+297.956+262.847+297.956C256.913+297.956+251.332+295.645+247.136+291.449C242.938+287.251+240.626+281.671+240.626+275.693C240.626+262.558+249.446+250.842+262.076+247.201L280.07+242.013L271.014+225.622C264.659+214.118+266.706+199.598+275.99+190.312C281.591+184.713+289.036+181.629+296.952+181.629C301.999+181.629+306.955+182.899+311.284+185.302L327.686+194.406L332.887+176.381C336.529+163.759+348.244+154.943+361.374+154.943C374.506+154.943+386.221+163.758+389.863+176.381L395.064+194.406L411.466+185.302C415.796+182.899+420.752+181.629+425.798+181.629C433.715+181.629+441.159+184.712+446.757+190.309C452.355+195.908+455.438+203.351+455.438+211.269C455.438+216.317+454.168+221.274+451.766+225.603L442.665+242.005L460.687+247.205C473.309+250.847+482.125+262.561+482.125+275.693C482.122+287.943+472.156+297.912+459.906+297.914Z" opacity="1" fill="#f7f3f3"/>
</g>
</svg>
