<?xml version="1.0" encoding="UTF-8" standalone="no"?> <!-- Created with Vectornator for iOS (http://vectornator.io/) --><!DOCTYPE svg PUBLIC "-//W3C//DTD SVG 1.1//EN" "http://www.w3.org/Graphics/SVG/1.1/DTD/svg11.dtd">
<svg style="fill-rule:evenodd;clip-rule:evenodd;stroke-linecap:round;stroke-linejoin:round;" xmlns:vectornator="http://vectornator.io" xmlns:xlink="http://www.w3.org/1999/xlink" xmlns="http://www.w3.org/2000/svg" xml:space="preserve" version="1.1" viewBox="0 0 245.96 245.96">
<metadata>
<vectornator:setting key="DynamicGuides" value="1"/>
<vectornator:setting key="Units" value="Pixels"/>
<vectornator:setting key="GuidesVisible" value="1"/>
<vectornator:setting key="RulersVisible" value="1"/>
<vectornator:setting key="SnapToGuides" value="1"/>
<vectornator:setting key="GridSpacing" value="36"/>
</metadata>
<defs/>
<g id="Untitled" vectornator:layerName="Untitled">
<g opacity="1">
<path d="M112.959+48.9445C114.458+48.9445+115.995+48.3495+117.141+47.1765L137.475+26.3035C139.727+24.0035+139.667+20.3125+137.367+18.0665C135.035+15.8085+131.336+15.8465+129.118+18.1705L108.766+39.0455C106.512+41.3455+106.578+45.0325+108.878+47.2785C110.032+48.3955+111.477+48.9445+112.959+48.9445Z" opacity="1" fill="#fdf9f9"/>
<path d="M88.568+46.0265C88.6+46.0265+88.63+46.0265+88.66+46.0265C91.88+45.9765+94.44+43.3315+94.407+40.1195L94.038+10.9875C93.978+7.7635+91.313+5.2795+88.121+5.2245C84.901+5.2645+82.344+7.9095+82.374+11.1295L82.743+40.2615C82.795+43.4585+85.372+46.0265+88.568+46.0265Z" opacity="1" fill="#fdf9f9"/>
<path d="M61.43+52.1565C62.568+53.2725+64.021+53.8195+65.497+53.8195C67.012+53.8195+68.517+53.2265+69.679+52.0515C71.933+49.7515+71.871+46.0645+69.569+43.8185L48.705+23.4785C46.405+21.2245+42.77+21.2405+40.452+23.5785C38.218+25.8785+38.264+29.5695+40.578+31.8155L61.43+52.1565Z" opacity="1" fill="#fdf9f9"/>
<path d="M243.483+93.5425C243.382+93.4885+243.282+93.5505+243.19+93.5045C242.373+92.1555+241.083+91.0935+239.419+90.7715L90.106+61.6075C89.004+61.3785+87.978+61.4815+86.981+61.8655L6.22301+91.6035C5.40001+91.9025+5.03301+92.6575+4.45601+93.2285C3.64801+93.4385+2.77101+93.2985+2.12501+93.8285C0.761014+94.9375+1.37389e-05+96.5905+1.37389e-05+98.3235L1.37389e-05+205.763C1.37389e-05+208.552+1.97801+210.96+4.72501+211.482L156.47+240.616C156.823+240.692+157.192+240.736+157.56+240.736C157.672+240.736+157.756+240.643+157.836+240.643C157.965+240.643+158.065+240.736+158.173+240.736C158.83+240.736+159.491+240.616+160.149+240.399L242.097+211.269C244.417+210.456+245.96+208.231+245.96+205.779L245.96+98.3295C245.943+96.4265+245.01+94.6505+243.483+93.5425ZM89.454+73.3695L220.769+99.0245L201.189+105.978C200.82+105.822+200.66+105.421+200.259+105.349L71.102+80.1255L89.454+73.3695ZM157.483+121.506L26.81+96.4265L50.037+87.8745L180.435+113.342L157.483+121.506ZM151.709+227.827L11.625+200.95L11.625+105.365L151.709+132.259L151.709+227.827ZM234.298+201.655L164.012+226.654L164.012+131.57L234.298+106.575L234.298+201.655Z" opacity="1" fill="#fdf9f9"/>
</g>
</g>
</svg>
