<?xml version="1.0" encoding="UTF-8" standalone="no"?> <!-- Created with Vectornator for iOS (http://vectornator.io/) --><!DOCTYPE svg PUBLIC "-//W3C//DTD SVG 1.1//EN" "http://www.w3.org/Graphics/SVG/1.1/DTD/svg11.dtd">
<svg style="fill-rule:evenodd;clip-rule:evenodd;stroke-linecap:round;stroke-linejoin:round;" xmlns:vectornator="http://vectornator.io" xmlns:xlink="http://www.w3.org/1999/xlink" xmlns="http://www.w3.org/2000/svg" xml:space="preserve" version="1.1" viewBox="0 0 512 512">
<metadata>
<vectornator:setting key="DynamicGuides" value="1"/>
<vectornator:setting key="Units" value="Points"/>
<vectornator:setting key="GuidesVisible" value="1"/>
<vectornator:setting key="RulersVisible" value="1"/>
<vectornator:setting key="SnapToGuides" value="1"/>
<vectornator:setting key="GridSpacing" value="36"/>
</metadata>
<defs/>
<g id="Untitled" vectornator:layerName="Untitled">
<path d="M119.467+337.067C91.23+337.067+68.267+360.03+68.267+388.267C68.267+416.504+91.23+439.467+119.467+439.467C147.704+439.467+170.667+416.504+170.667+388.267C170.667+360.03+147.703+337.067+119.467+337.067ZM119.467+422.4C100.642+422.4+85.334+407.091+85.334+388.267C85.334+369.442+100.643+354.134+119.467+354.134C138.291+354.134+153.6+369.443+153.6+388.267C153.6+407.091+138.291+422.4+119.467+422.4Z" opacity="1" fill="#fff9f9"/>
<path d="M409.6+337.067C381.363+337.067+358.4+360.03+358.4+388.267C358.4+416.504+381.363+439.467+409.6+439.467C437.837+439.467+460.8+416.504+460.8+388.267C460.8+360.03+437.837+337.067+409.6+337.067ZM409.6+422.4C390.775+422.4+375.467+407.091+375.467+388.267C375.467+369.442+390.776+354.134+409.6+354.134C428.425+354.134+443.733+369.443+443.733+388.267C443.733+407.091+428.425+422.4+409.6+422.4Z" opacity="1" fill="#fff9f9"/>
<path d="M510.643+289.784L433.843+170.317C432.273+167.876+429.568+166.4+426.666+166.4L332.8+166.4C328.081+166.4+324.267+170.223+324.267+174.933L324.267+388.266C324.267+392.985+328.081+396.799+332.8+396.799L366.933+396.799L366.933+379.732L341.333+379.732L341.333+183.467L422.007+183.467L494.933+296.909L494.933+379.734L452.266+379.734L452.266+396.8L503.466+396.8C508.185+396.8+511.999+392.986+511.999+388.267L511.999+294.4C512+292.77+511.531+291.157+510.643+289.784Z" opacity="1" fill="#fff9f9"/>
<path d="M375.467+277.333L375.467+217.6L443.734+217.6L443.734+200.533L366.934+200.533C362.215+200.533+358.401+204.356+358.401+209.066L358.401+285.866C358.401+290.585+362.215+294.399+366.934+294.399L494.934+294.399L494.934+277.332L375.467+277.332L375.467+277.333Z" opacity="1" fill="#fff9f9"/>
<path d="M332.8+106.667L8.533+106.667C3.823+106.667+0+110.49+0+115.2L0+388.267C0+392.986+3.823+396.8+8.533+396.8L76.8+396.8L76.8+379.733L17.067+379.733L17.067+123.733L324.267+123.733L324.267+379.733L162.133+379.733L162.133+396.8L332.8+396.8C337.519+396.8+341.333+392.986+341.333+388.267L341.333+115.2C341.333+110.49+337.519+106.667+332.8+106.667Z" opacity="1" fill="#fff9f9"/>
<path d="M8.533+345.6L59.733+345.6L59.733+345.6L59.733+362.667L59.733+362.667L8.533+362.667L8.533+362.667L8.533+345.6L8.533+345.6Z" opacity="1" fill="#fff9f9"/>
<path d="M179.2+345.6L324.267+345.6L324.267+345.6L324.267+362.667L324.267+362.667L179.2+362.667L179.2+362.667L179.2+345.6L179.2+345.6Z" opacity="1" fill="#fff9f9"/>
<path d="M469.333+345.6L503.466+345.6L503.466+345.6L503.466+362.667L503.466+362.667L469.333+362.667L469.333+362.667L469.333+345.6L469.333+345.6Z" opacity="1" fill="#fff9f9"/>
<path d="M34.133+140.8L332.8+140.8L332.8+140.8L332.8+157.867L332.8+157.867L34.133+157.867L34.133+157.867L34.133+140.8L34.133+140.8Z" opacity="1" fill="#fff9f9"/>
<path d="M110.933+379.733L128+379.733L128+379.733L128+396.8L128+396.8L110.933+396.8L110.933+396.8L110.933+379.733L110.933+379.733Z" opacity="1" fill="#fff9f9"/>
<path d="M401.067+379.733L418.134+379.733L418.134+379.733L418.134+396.8L418.134+396.8L401.067+396.8L401.067+396.8L401.067+379.733L401.067+379.733Z" opacity="1" fill="#fff9f9"/>
<path d="M34.133+72.533L153.6+72.533L153.6+72.533L153.6+89.6L153.6+89.6L34.133+89.6L34.133+89.6L34.133+72.533L34.133+72.533Z" opacity="1" fill="#fff9f9"/>
<path d="M0+72.533L17.067+72.533L17.067+72.533L17.067+89.6L17.067+89.6L0+89.6L0+89.6L0+72.533L0+72.533Z" opacity="1" fill="#fff9f9"/>
</g>
</svg>
