<?xml version="1.0" encoding="UTF-8" standalone="no"?> <!-- Created with Vectornator for iOS (http://vectornator.io/) --><!DOCTYPE svg PUBLIC "-//W3C//DTD SVG 1.1//EN" "http://www.w3.org/Graphics/SVG/1.1/DTD/svg11.dtd">
<svg style="fill-rule:evenodd;clip-rule:evenodd;stroke-linecap:round;stroke-linejoin:round;" xmlns:vectornator="http://vectornator.io" xmlns:xlink="http://www.w3.org/1999/xlink" xmlns="http://www.w3.org/2000/svg" xml:space="preserve" version="1.1" viewBox="0 0 512.001 512">
<metadata>
<vectornator:setting key="DynamicGuides" value="1"/>
<vectornator:setting key="Units" value="Points"/>
<vectornator:setting key="GuidesVisible" value="1"/>
<vectornator:setting key="RulersVisible" value="1"/>
<vectornator:setting key="SnapToGuides" value="1"/>
<vectornator:setting key="GridSpacing" value="36"/>
</metadata>
<defs/>
<g id="Untitled" vectornator:layerName="Untitled">
<path d="M485.586+186.203C477.965+178.719+469.199+172.805+459.703+168.578C490.488+154.832+512+123.93+512+88.0938C512+39.5195+472.48+0+423.906+0L88.0938+0C39.5195+0+0+39.5195+0+88.0938C0+123.941+21.5195+154.848+52.3203+168.59C21.5195+182.332+0+213.242+0+249.086C0+297.664+39.5195+337.18+88.0938+337.18L160.492+337.18L160.078+389.367C160.047+393.508+163.379+396.891+167.52+396.926L167.578+396.926C171.695+396.926+175.047+393.605+175.078+389.484L176.187+249.148C176.187+249.145+176.187+249.145+176.187+249.141C176.187+249.125+176.191+249.105+176.191+249.086C176.191+218.809+160.836+192.055+137.508+176.191L423.906+176.191C425.207+176.191+426.5+176.156+427.785+176.102C445.594+177.027+462.266+184.332+475.078+196.91C488.801+210.379+496.57+228.375+496.961+247.582C496.965+247.797+496.98+248.012+497.004+248.223L497.004+454.93L174.559+454.93L174.848+418.484C174.883+414.34+171.551+410.957+167.41+410.926C167.387+410.926+167.367+410.926+167.348+410.926C163.234+410.926+159.883+414.242+159.852+418.363L159.5+462.371C159.484+464.371+160.27+466.293+161.676+467.711C163.086+469.133+165.004+469.93+167+469.93L504.5+469.93C508.645+469.93+512+466.57+512+462.43L512+247.43C512+247.098+511.98+246.77+511.937+246.449C511.266+223.609+501.926+202.242+485.586+186.203ZM423.906+15C464.211+15+497+47.7891+497+88.0938C497+127.098+466.289+159.066+427.773+161.082C426.488+161.027+425.199+160.992+423.906+160.992C423.324+160.992+422.762+161.063+422.219+161.188L137.215+161.188C160.707+145.348+176.187+118.496+176.187+88.0938C176.187+57.6914+160.707+30.8359+137.215+15L423.906+15ZM15+88.0938C15+47.7891+47.7891+15+88.0938+15C128.398+15+161.188+47.7891+161.188+88.0938C161.188+127.09+130.496+159.047+92+161.082C90.7031+161.027+89.4023+160.992+88.0938+160.992C86.7852+160.992+85.4844+161.027+84.1914+161.082C45.6953+159.047+15+127.09+15+88.0938ZM160.609+322.18L137.215+322.18C146.473+315.937+154.484+307.984+160.797+298.777L160.609+322.18ZM161.188+249.086C161.188+289.391+128.398+322.18+88.0938+322.18C47.7891+322.18+15+289.391+15+249.086C15+210.09+45.6953+178.133+84.1914+176.098C85.4844+176.156+86.7852+176.191+88.0938+176.191L88.1328+176.191L93.1875+176.191C131.121+178.816+161.188+210.496+161.188+249.086Z" opacity="1" fill="#faf8f8"/>
<path d="M88.0938+214.723C69.1445+214.723+53.7305+230.137+53.7305+249.086C53.7305+268.035+69.1445+283.453+88.0938+283.453C107.043+283.453+122.461+268.035+122.461+249.086C122.461+230.137+107.043+214.723+88.0938+214.723ZM88.0938+268.449C77.418+268.449+68.7305+259.762+68.7305+249.086C68.7305+238.406+77.418+229.719+88.0938+229.719C98.7734+229.719+107.461+238.406+107.461+249.086C107.461+259.762+98.7734+268.449+88.0938+268.449Z" opacity="1" fill="#faf8f8"/>
<path d="M122.461+88.0938C122.461+69.1445+107.043+53.7305+88.0938+53.7305C69.1445+53.7305+53.7305+69.1445+53.7305+88.0938C53.7305+107.043+69.1445+122.461+88.0938+122.461C107.043+122.461+122.461+107.043+122.461+88.0938ZM68.7305+88.0938C68.7305+77.418+77.4141+68.7305+88.0938+68.7305C98.7734+68.7305+107.461+77.418+107.461+88.0938C107.461+98.7734+98.7734+107.461+88.0938+107.461C77.418+107.461+68.7305+98.7734+68.7305+88.0938Z" opacity="1" fill="#faf8f8"/>
</g>
</svg>
