<?xml version="1.0" encoding="UTF-8" standalone="no"?> <!-- Created with Vectornator for iOS (http://vectornator.io/) --><!DOCTYPE svg PUBLIC "-//W3C//DTD SVG 1.1//EN" "http://www.w3.org/Graphics/SVG/1.1/DTD/svg11.dtd">
<svg style="fill-rule:evenodd;clip-rule:evenodd;stroke-linecap:round;stroke-linejoin:round;" xmlns:vectornator="http://vectornator.io" xmlns:xlink="http://www.w3.org/1999/xlink" xmlns="http://www.w3.org/2000/svg" xml:space="preserve" version="1.1" viewBox="0 0 512 512">
<metadata>
<vectornator:setting key="DynamicGuides" value="1"/>
<vectornator:setting key="Units" value="Points"/>
<vectornator:setting key="GuidesVisible" value="1"/>
<vectornator:setting key="RulersVisible" value="1"/>
<vectornator:setting key="SnapToGuides" value="1"/>
<vectornator:setting key="GridSpacing" value="36"/>
</metadata>
<defs/>
<g id="Untitled" vectornator:layerName="Untitled">
<g opacity="1">
<path d="M492+275C492+269.477+496.477+265+502+265C507.523+265+512+269.477+512+275C512+280.523+507.523+285+502+285C496.477+285+492+280.523+492+275Z" opacity="1" fill="#fcf7f7"/>
<path d="M502+240C507.51+240+512+235.51+512+230L512+112C512+110.503+511.643+109.028+511.001+107.687C510.991+107.657+510.995+107.631+510.98+107.6L460.98+5.6C459.3+2.17+455.82-1.04308e-07+452-1.04308e-07L60-1.04308e-07C56.18-1.04308e-07+52.7+2.17+51.02+5.6L1.02+107.6C1.004+107.632+1.008+107.659+0.997001+107.69C0.357001+109.03+9.23872e-07+110.504+9.23872e-07+112L9.23872e-07+502C9.23872e-07+504.63+1.07+507.21+2.93+509.07C4.79+510.93+7.37+512+10+512L502+512C504.63+512+507.21+510.93+509.07+509.07C510.93+507.21+512+504.63+512+502L512+320C512+314.49+507.51+310+502+310C496.49+310+492+314.49+492+320L492+378.146L384.479+270.626C380.575+266.721+374.242+266.721+370.337+270.626L359.711+281.252L331.387+252.928C327.482+249.023+321.15+249.024+317.245+252.928L288.929+281.244C285.024+285.149+285.024+291.481+288.929+295.386L317.253+323.71L306.627+334.336C302.722+338.241+302.722+344.573+306.627+348.478L431.218+473.069C433.093+474.944+435.637+475.998+438.289+475.998C440.941+475.998+443.485+474.944+445.36+473.069L492+426.429L492+492L268+492L268+487L308+487C313.523+487+318+482.523+318+477L318+437C318+431.477+313.523+427+308+427L268+427L268+412C268+406.477+263.523+402+258+402L182+402L182+236C182+230.477+177.523+226+172+226L157+226L157+186C157+180.477+152.523+176+147+176L107+176C101.477+176+97+180.477+97+186L97+226L82+226C76.477+226+72+230.477+72+236L72+492L20+492L20+122L277.77+122C282.59+153.11+309.56+177+342+177C374.44+177+401.41+153.11+406.23+122L492+122L492+230C492+235.51+496.49+240+502+240ZM310.142+288.316L324.316+274.142L345.569+295.395L331.395+309.569L310.142+288.316ZM438.289+451.858L327.84+341.409L377.409+291.84L487.858+402.289L438.289+451.858ZM268+447L298+447L298+467L268+467L268+447ZM117+196L137+196L137+226L117+226L117+196ZM92+246L162+246L162+402L92+402L92+246ZM92+422L248+422L248+492L92+492L92+422ZM342+157C317.147+157+297+136.853+297+112C297+87.147+317.147+67+342+67C366.853+67+387+87.147+387+112C387+136.853+366.853+157+342+157ZM406.23+102C401.41+70.89+374.44+47+342+47C309.56+47+282.59+70.89+277.77+102L26.04+102L66.23+20L445.77+20L485.96+102L406.23+102Z" opacity="1" fill="#fcf7f7"/>
</g>
</g>
</svg>
