<?xml version="1.0" encoding="UTF-8" standalone="no"?> <!-- Created with Vectornator for iOS (http://vectornator.io/) --><!DOCTYPE svg PUBLIC "-//W3C//DTD SVG 1.1//EN" "http://www.w3.org/Graphics/SVG/1.1/DTD/svg11.dtd">
<svg style="fill-rule:evenodd;clip-rule:evenodd;stroke-linecap:round;stroke-linejoin:round;" xmlns:vectornator="http://vectornator.io" xmlns:xlink="http://www.w3.org/1999/xlink" xmlns="http://www.w3.org/2000/svg" xml:space="preserve" version="1.1" viewBox="0 0 512.002 512.002">
<metadata>
<vectornator:setting key="DynamicGuides" value="1"/>
<vectornator:setting key="Units" value="Points"/>
<vectornator:setting key="GuidesVisible" value="1"/>
<vectornator:setting key="RulersVisible" value="1"/>
<vectornator:setting key="SnapToGuides" value="1"/>
<vectornator:setting key="GridSpacing" value="36"/>
</metadata>
<defs/>
<g id="Untitled" vectornator:layerName="Untitled">
<path d="M428.153+22.897C413.343+22.897+401.293+34.946+401.293+49.757L401.293+83.028L386.555+83.028L386.555+29.313C386.555+12.602+365.648+0+337.927+0L116.573+0C88.852+0+67.946+12.602+67.946+29.313L67.946+180.775L66.989+180.775C61.467+180.775+56.989+185.252+56.989+190.775C56.989+196.298+61.467+200.775+66.989+200.775L71.342+200.775L111.595+295.066C109.388+296.9+107.982+299.665+107.982+302.759L107.982+502.002C107.982+507.525+112.459+512.002+117.982+512.002C123.504+512.002+127.982+507.525+127.982+502.002L127.982+384.292L144.779+372.797L145.121+373.597L145.121+400.704C145.121+422.293+162.685+439.857+184.275+439.857L269.03+439.857C290.619+439.857+308.183+422.293+308.183+400.704L308.183+376.237C308.317+375.986+308.463+375.744+308.578+375.477L310.699+370.508L326.519+381.335L326.519+502.002C326.519+507.525+330.997+512.002+336.519+512.002C342.041+512.002+346.519+507.525+346.519+502.002L346.519+302.759C346.519+299.665+345.113+296.901+342.906+295.066L383.16+200.775L387.512+200.775C393.035+200.775+397.512+196.298+397.512+190.775C397.512+185.252+393.035+180.775+387.512+180.775L386.555+180.775L386.555+103.028L401.293+103.028L401.293+146.102C401.293+160.913+413.343+172.963+428.153+172.963C442.965+172.963+455.014+160.913+455.014+146.102L455.014+49.758C455.015+34.947+442.964+22.897+428.153+22.897ZM127.98+360.057L127.98+333.45L136.77+354.041L127.98+360.057ZM153.602+342.523L140.895+312.758L197.093+312.758L153.602+342.523ZM288.182+400.705C288.182+411.266+279.59+419.858+269.029+419.858L184.274+419.858C173.712+419.858+165.12+411.266+165.12+400.705L165.12+381.552L288.182+381.552L288.182+400.705ZM292.776+361.551L161.724+361.551L161.608+361.278L229.41+314.876L293.869+358.99L292.776+361.551ZM301.876+340.236L261.727+312.759L313.605+312.759L301.876+340.236ZM326.518+357.1L318.705+351.753L326.518+333.451L326.518+357.1ZM366.554+31.034L200.661+31.034C195.139+31.034+190.661+35.511+190.661+41.034C190.661+46.557+195.139+51.034+200.661+51.034L366.554+51.034L366.554+180.893C361.725+181.6+358.012+185.748+358.012+190.775C358.012+194.132+359.671+197.094+362.208+198.908L322.143+292.758L132.355+292.758L93.087+200.775L146.53+200.775C151.477+240.931+185.776+272.13+227.249+272.13C270.523+272.13+306.003+238.163+308.456+195.492C308.462+195.414+308.474+195.337+308.478+195.259C308.481+195.211+308.481+195.162+308.484+195.114C308.493+194.946+308.497+194.775+308.505+194.606C308.565+193.317+308.603+192.032+308.603+190.778C308.603+190.777+308.603+190.777+308.603+190.777L308.603+190.776L308.603+190.775C308.603+190.775+308.603+190.775+308.603+190.774C308.602+145.916+272.107+109.421+227.249+109.421C185.777+109.421+151.479+140.62+146.53+180.774L87.946+180.774L87.943+51.034L119.383+51.034C124.905+51.034+129.383+46.557+129.383+41.034C129.383+35.511+124.906+31.034+119.383+31.034L87.943+31.034L87.943+29.352C88.36+27.174+98.1+20+116.573+20L337.927+20C356.4+20+366.14+27.174+366.554+29.313L366.554+31.034ZM210.404+180.49C223.322+181.258+231.568+186.176+241.117+191.87C252.316+198.549+264.721+205.947+284.583+205.947C285.277+205.947+286.001+205.918+286.714+205.9C279.96+232.441+255.863+252.13+227.251+252.13C194.061+252.13+166.959+225.634+165.944+192.686C171.103+188.635+186.044+179.045+210.404+180.49ZM170.658+167.086C179.945+144.984+201.813+129.421+227.251+129.421C259.407+129.421+285.847+154.294+288.386+185.809C271.7+186.778+262.149+181.126+251.361+174.693C241.056+168.547+229.377+161.582+211.59+160.525C194.427+159.503+180.763+162.846+170.658+167.086ZM435.015+146.103C435.015+149.822+431.872+152.964+428.154+152.964C424.435+152.964+421.294+149.822+421.294+146.103L421.294+49.758C421.294+46.039+424.436+42.898+428.154+42.898C431.873+42.898+435.015+46.04+435.015+49.758L435.015+146.103Z" fill-rule="evenodd" fill="#fffefe" opacity="1"/>
<path d="M338.927+180.775L338.452+180.775C332.93+180.775+328.452+185.252+328.452+190.775C328.452+196.298+332.93+200.775+338.452+200.775L338.927+200.775C344.449+200.775+348.927+196.298+348.927+190.775C348.927+185.252+344.45+180.775+338.927+180.775Z" fill-rule="evenodd" fill="#fffefe" opacity="1"/>
<path d="M148.943+31.034L148.467+31.034C142.945+31.034+138.467+35.511+138.467+41.034C138.467+46.557+142.944+51.034+148.467+51.034L148.943+51.034C154.465+51.034+158.943+46.557+158.943+41.034C158.943+35.511+154.466+31.034+148.943+31.034Z" fill-rule="evenodd" fill="#fffefe" opacity="1"/>
</g>
</svg>
