<?xml version="1.0" encoding="UTF-8" standalone="no"?> <!-- Created with Vectornator for iOS (http://vectornator.io/) --><!DOCTYPE svg PUBLIC "-//W3C//DTD SVG 1.1//EN" "http://www.w3.org/Graphics/SVG/1.1/DTD/svg11.dtd">
<svg style="fill-rule:evenodd;clip-rule:evenodd;stroke-linecap:round;stroke-linejoin:round;" xmlns:vectornator="http://vectornator.io" xmlns:xlink="http://www.w3.org/1999/xlink" xmlns="http://www.w3.org/2000/svg" xml:space="preserve" version="1.1" viewBox="0 0 64 64">
<metadata>
<vectornator:setting key="DynamicGuides" value="1"/>
<vectornator:setting key="Units" value="Points"/>
<vectornator:setting key="GuidesVisible" value="1"/>
<vectornator:setting key="RulersVisible" value="1"/>
<vectornator:setting key="SnapToGuides" value="1"/>
<vectornator:setting key="GridSpacing" value="36"/>
</metadata>
<defs/>
<g id="Untitled" vectornator:layerName="Untitled">
<g opacity="1">
<path d="M32+20C35.309+20+38+17.309+38+14C38+10.691+35.309+8+32+8C28.691+8+26+10.691+26+14C26+17.309+28.691+20+32+20ZM32+10C34.206+10+36+11.794+36+14C36+16.206+34.206+18+32+18C29.794+18+28+16.206+28+14C28+11.794+29.794+10+32+10Z" opacity="1" fill="#fef7f7"/>
<path d="M57.78+24C55.259+15.888+48.891+9.306+40.874+6.507L41.61+4.658L38.595+5.261C36.668+5.645+34.659+4.879+33.479+3.306L32+1.333L30.521+3.306C29.341+4.879+27.333+5.645+25.405+5.261L22.39+4.658L23.126+6.506C15.086+9.299+8.857+15.684+6.274+23.815C3.515+25.085+1.47+27.723+1.075+30.822C0.627999+34.33+2.193+37.687+5.159+39.583C5.678+39.915+6+40.553+6+41.25L6+43C6+45.043+7.546+46.714+9.526+46.952C11.492+49.898+14.058+52.47+17+54.442L17+61L5+61L5+63L59+63L59+61L45+61L45+55.656C49.15+53.371+52.614+50.049+55.074+46L61+46L61+44L59+44L59+42L63+42L63+24L57.78+24ZM61+32L57+32L57+26L61+26L61+32ZM51+40L51+34L55+34L55+40L51+40ZM45+34L49+34L49+40L45+40L45+34ZM45+32L45+26L49+26L49+32L45+32ZM51+32L51+26L55+26L55+32L51+32ZM25.411+7.29C27.896+7.64+30.431+6.637+32+4.662C33.569+6.637+36.105+7.641+38.59+7.29C38.175+9.812+39.145+12.374+41.167+13.99C39.147+15.549+38.127+18.065+38.453+20.559C35.961+20.283+33.523+21.329+31.999+23.336C30.637+21.623+28.55+20.641+26.395+20.641C26.067+20.641+25.738+20.663+25.41+20.71C25.826+18.183+24.852+15.616+22.821+14C24.852+12.384+25.826+9.817+25.411+7.29ZM6.237+37.898C3.928+36.423+2.711+33.809+3.06+31.075C3.459+27.938+6.034+25.402+9.18+25.046C9.458+25.015+9.734+25+10.008+25C11.733+25+13.362+25.617+14.661+26.778C16.148+28.105+17+30.009+17+32C17+34.39+15.796+36.591+13.78+37.887C12.723+38.566+12.077+39.72+12.012+41L11+41L11+34.816C12.161+34.402+13+33.302+13+32C13+30.346+11.654+29+10+29C8.346+29+7+30.346+7+32C7+33.302+7.839+34.402+9+34.816L9+41L7.985+41C7.911+39.709+7.274+38.561+6.237+37.898ZM9+32C9+31.449+9.449+31+10+31C10.551+31+11+31.449+11+32C11+32.551+10.551+33+10+33C9.449+33+9+32.551+9+32ZM8+43L12+43C12+44.103+11.103+45+10+45C8.897+45+8+44.103+8+43ZM37+45L37+49.58L33+48.78L33+61L29+61L29+46.78L27+47.18L27+45L37+45ZM27+49.22L27+61L19+61L19+50.82L27+49.22ZM35+61L35+51.22L43+52.82L43+61L35+61ZM45+53.351L45+51.18L39+49.98L39+43L37+43L37+41L35+41L35+43L33+43L33+39L31+39L31+43L29+43L29+41L27+41L27+43L25+43L25+47.58L17+49.18L17+51.989C14.984+50.471+13.184+48.647+11.708+46.602C13.058+45.959+14+44.592+14+43L14+41.208C14+40.539+14.33+39.911+14.862+39.569C17.453+37.904+19+35.074+19+32C19+29.44+17.904+26.993+15.994+25.287C14.085+23.581+11.515+22.767+8.955+23.059C8.846+23.071+8.74+23.094+8.632+23.11C11.215+16.302+16.621+10.975+23.49+8.494C23.471+10.23+22.58+11.886+21.004+12.831L19.057+14L21.005+15.169C23.178+16.473+24.073+19.127+23.13+21.482L22.39+23.342L25.405+22.739C27.333+22.356+29.341+23.121+30.521+24.694L32+26.667L33.572+24.572C34.722+23.038+36.611+22.276+38.506+22.584L41.316+23.042L40.716+21.43C39.854+19.112+40.767+16.507+42.886+15.235L44.944+14L42.996+12.831C41.421+11.886+40.531+10.231+40.511+8.496C47.602+11.073+53.264+16.858+55.685+24L43+24L43+42L47+42L47+44L45+44L45+46L52.716+46C50.701+48.979+48.071+51.479+45+53.351ZM57+44L49+44L49+42L57+42L57+44ZM57+40L57+34L61+34L61+40L57+40Z" opacity="1" fill="#fef7f7"/>
<path d="M61+61L63+61L63+63L61+63L61+61Z" opacity="1" fill="#fef7f7"/>
<path d="M1+61L3+61L3+63L1+63L1+61Z" opacity="1" fill="#fef7f7"/>
<path d="M37+57L41+57L41+59L37+59L37+57Z" opacity="1" fill="#fef7f7"/>
<path d="M21+53L25+53L25+55L21+55L21+53Z" opacity="1" fill="#fef7f7"/>
<path d="M21+57L25+57L25+59L21+59L21+57Z" opacity="1" fill="#fef7f7"/>
<path d="M25+29L39+29L39+31L25+31L25+29Z" opacity="1" fill="#fef7f7"/>
<path d="M37+33L39+33L39+35L37+35L37+33Z" opacity="1" fill="#fef7f7"/>
<path d="M29+33L31+33L31+35L29+35L29+33Z" opacity="1" fill="#fef7f7"/>
<path d="M25+33L27+33L27+35L25+35L25+33Z" opacity="1" fill="#fef7f7"/>
<path d="M33+33L35+33L35+35L33+35L33+33Z" opacity="1" fill="#fef7f7"/>
</g>
</g>
</svg>
