<?xml version="1.0" encoding="UTF-8" standalone="no"?> <!-- Created with Vectornator for iOS (http://vectornator.io/) --><!DOCTYPE svg PUBLIC "-//W3C//DTD SVG 1.1//EN" "http://www.w3.org/Graphics/SVG/1.1/DTD/svg11.dtd">
<svg style="fill-rule:evenodd;clip-rule:evenodd;stroke-linecap:round;stroke-linejoin:round;" xmlns:vectornator="http://vectornator.io" xmlns:xlink="http://www.w3.org/1999/xlink" xmlns="http://www.w3.org/2000/svg" xml:space="preserve" version="1.1" viewBox="0 0 480.005 480.005">
<metadata>
<vectornator:setting key="DynamicGuides" value="1"/>
<vectornator:setting key="Units" value="Points"/>
<vectornator:setting key="GuidesVisible" value="1"/>
<vectornator:setting key="RulersVisible" value="1"/>
<vectornator:setting key="SnapToGuides" value="1"/>
<vectornator:setting key="GridSpacing" value="36"/>
</metadata>
<defs/>
<g id="Untitled" vectornator:layerName="Untitled">
<g opacity="1">
<path d="M248.002+80L224.002+80C220.972+80+218.202+81.712+216.847+84.422L208.847+100.422C208.291+101.533+208.002+102.758+208.002+104L208.002+120C208.002+124.418+211.584+128+216.002+128L248.002+128C252.42+128+256.002+124.418+256.002+120L256.002+88C256.003+83.582+252.42+80+248.002+80ZM240.002+112L224.002+112L224.002+105.889L228.946+96L240.002+96L240.002+112Z" opacity="1" fill="#fff8f8"/>
<path d="M276.003+16L252.003+16C245.379+16.007+240.01+21.376+240.003+28L240.003+40L200.003+40C196.802+40+193.91+41.907+192.649+44.849L168.649+100.849C168.223+101.845+168.003+102.917+168.003+104L168.003+177C168.017+189.697+178.306+199.986+191.003+200L232.003+200L232.003+244.686L229.66+242.343C226.536+239.219+221.47+239.219+218.346+242.343C215.222+245.467+215.222+250.533+218.346+253.657L234.346+269.657C237.47+272.781+242.535+272.781+245.66+269.657L261.66+253.657C264.784+250.533+264.784+245.467+261.66+242.343C258.536+239.219+253.47+239.219+250.346+242.343L248.003+244.686L248.003+200L281.003+200C293.7+199.986+303.989+189.697+304.003+177L304.003+80C304.003+78.758+303.714+77.533+303.158+76.422L288.003+46.111L288.003+28C287.996+21.376+282.626+16.007+276.003+16ZM256.003+32L272.003+32L272.003+40L256.003+40L256.003+32ZM288.003+177C287.998+180.864+284.867+183.995+281.003+184L191.003+184C187.139+183.995+184.008+180.864+184.003+177L184.003+105.642L205.277+56L275.058+56L288.002+81.889L288.002+177L288.003+177Z" opacity="1" fill="#fff8f8"/>
<path d="M136.002+46.7L136.002+30C135.994+22.271+129.731+16.008+122.002+16L102.002+16C94.273+16.008+88.01+22.271+88.002+30L88.002+46.7L72.412+93.47C72.141+94.286+72.002+95.14+72.002+96L72.002+180C72.015+191.04+80.962+199.987+92.002+200L104.002+200L104.002+209.754L78.062+216.239C74.501+217.129+72.002+220.329+72.002+224L72.002+244.686L69.659+242.343C66.535+239.219+61.469+239.219+58.345+242.343C55.221+245.467+55.221+250.533+58.345+253.657L74.345+269.657C77.469+272.781+82.534+272.781+85.659+269.657L101.659+253.657C104.783+250.533+104.783+245.467+101.659+242.343C98.535+239.219+93.469+239.219+90.345+242.343L88.002+244.686L88.002+230.246L113.942+223.761C117.503+222.871+120.002+219.671+120.002+216L120.002+200L132.002+200C143.042+199.987+151.989+191.04+152.002+180L152.002+96C152.002+95.14+151.863+94.286+151.592+93.47L136.002+46.7ZM104.002+32L120.002+32L120.002+40L104.002+40L104.002+32ZM101.768+56L122.236+56L132.902+88L91.102+88L101.768+56ZM136.002+180C136.002+182.209+134.211+184+132.002+184L92.002+184C89.793+184+88.002+182.209+88.002+180L88.002+168L136.002+168L136.002+180ZM136.002+152L88.002+152L88.002+136L136.002+136L136.002+152ZM136.002+120L88.002+120L88.002+104L136.002+104L136.002+120Z" opacity="1" fill="#fff8f8"/>
<path d="M352.003+200L352.003+216C352.003+219.814+354.694+223.097+358.434+223.845L392.003+230.559L392.003+244.686L389.66+242.343C386.536+239.219+381.47+239.219+378.346+242.343C375.222+245.467+375.222+250.533+378.346+253.657L394.346+269.657C397.47+272.781+402.535+272.781+405.66+269.657L421.66+253.657C424.784+250.533+424.784+245.467+421.66+242.343C418.536+239.219+413.47+239.219+410.346+242.343L408.003+244.686L408.003+224C408.003+220.186+405.312+216.903+401.572+216.155L368.003+209.441L368.003+200L374.003+200C388.356+199.984+399.987+188.353+400.003+174L400.003+93.666C399.997+88.699+398.841+83.8+396.624+79.355L386.959+60.023C385.019+56.133+384.008+51.847+384.003+47.5L384.003+40C388.421+40+392.003+36.418+392.003+32L392.003+15C391.994+6.72+385.283+0.00899887+377.003-9.53674e-07L343.003-9.53674e-07C334.723+0.00899905+328.012+6.72+328.003+15L328.003+32C328.003+36.418+331.585+40+336.003+40L336.003+47.5C335.998+51.846+334.986+56.132+333.047+60.022L323.383+79.352C321.165+83.798+320.008+88.698+320.003+93.666L320.003+174C320.019+188.353+331.65+199.984+346.003+200L352.003+200ZM344.003+16L376.003+16L376.003+24L344.003+24L344.003+16ZM336.003+174L336.003+93.666C336.006+91.182+336.584+88.733+337.692+86.51L347.357+67.18C350.405+61.067+351.996+54.331+352.003+47.5L352.003+40L368.003+40L368.003+47.5C368.011+54.33+369.601+61.065+372.649+67.177L382.315+86.51C383.423+88.733+384+91.182+384.003+93.666L384.003+174C383.997+179.52+379.523+183.994+374.003+184L346.003+184C340.483+183.994+336.009+179.52+336.003+174Z" opacity="1" fill="#fff8f8"/>
<path d="M304.003+312L294.249+312L288.903+290.606C287.353+284.367+281.747+279.99+275.318+280L204.688+280C198.261+279.989+192.655+284.363+191.103+290.6L185.753+312L176.003+312C171.585+312+168.003+315.582+168.003+320L168.003+352C168.003+356.418+171.585+360+176.003+360L176.843+360L184.052+424.884C184.158+425.822+184.429+426.734+184.852+427.578L187.086+432.047C176.42+432.54+168.02+441.322+168.003+452L168.003+460C167.985+471.028+176.911+479.982+187.939+480C190.504+480.004+193.046+479.514+195.426+478.556C196.767+479.497+198.365+480.001+200.003+480L280.003+480C281.641+480.001+283.239+479.497+284.58+478.556C294.811+482.673+306.442+477.717+310.559+467.487C311.517+465.107+312.007+462.565+312.003+460L312.003+452C311.986+441.324+303.589+432.542+292.924+432.047L295.158+427.578C295.581+426.734+295.852+425.822+295.958+424.884L303.163+360L304.003+360C308.421+360+312.003+356.418+312.003+352L312.003+320C312.003+315.582+308.421+312+304.003+312ZM206.249+296L273.755+296L277.755+312L202.248+312L206.249+296ZM192.002+460C192.002+462.209+190.211+464+188.002+464C185.793+464+184.002+462.209+184.002+460L184.002+452C184.002+449.791+185.793+448+188.002+448C190.211+448+192.002+449.791+192.002+452L192.002+460ZM280.208+421.7L272.847+436.424C272.292+437.534+272.002+438.759+272.002+440L272.002+464L208.002+464L208.002+440C208.002+438.758+207.713+437.533+207.157+436.422L199.796+421.7L192.94+360L287.064+360L280.208+421.7ZM296.003+452L296.003+460C296.003+462.209+294.212+464+292.003+464C289.794+464+288.003+462.209+288.003+460L288.003+452C288.003+449.791+289.794+448+292.003+448C294.212+448+296.003+449.791+296.003+452ZM296.003+344L184.003+344L184.003+328L296.003+328L296.003+344Z" opacity="1" fill="#fff8f8"/>
<path d="M240.002+424C253.257+424+264.002+413.255+264.002+400C264.002+386.745+253.257+376+240.002+376C226.747+376+216.002+386.745+216.002+400C216.017+413.248+226.754+423.985+240.002+424ZM240.002+392C244.42+392+248.002+395.582+248.002+400C248.002+404.418+244.42+408+240.002+408C235.584+408+232.002+404.418+232.002+400C232.007+395.584+235.586+392.005+240.002+392Z" opacity="1" fill="#fff8f8"/>
<path d="M144.002+312L134.248+312L128.902+290.606C127.352+284.367+121.746+279.99+115.317+280L44.687+280C38.26+279.989+32.654+284.363+31.102+290.6L25.756+312L16.002+312C11.584+312+8.002+315.582+8.002+320L8.002+352C8.002+356.418+11.584+360+16.002+360L16.842+360L24.051+424.884C24.157+425.822+24.428+426.734+24.851+427.578L27.085+432.047C16.419+432.54+8.019+441.322+8.002+452L8.002+460C7.984+471.028+16.91+479.982+27.938+480C30.503+480.004+33.045+479.514+35.425+478.556C36.766+479.497+38.364+480.001+40.002+480L120.002+480C121.64+480.001+123.238+479.497+124.579+478.556C134.81+482.673+146.441+477.717+150.558+467.487C151.516+465.107+152.006+462.565+152.002+460L152.002+452C151.985+441.324+143.588+432.542+132.923+432.047L135.157+427.578C135.58+426.734+135.851+425.822+135.957+424.884L143.162+360L144.002+360C148.42+360+152.002+356.418+152.002+352L152.002+320C152.002+315.582+148.42+312+144.002+312ZM46.249+296L113.755+296L117.755+312L42.248+312L46.249+296ZM32.002+460C32.002+462.209+30.211+464+28.002+464C25.793+464+24.002+462.209+24.002+460L24.002+452C24.002+449.791+25.793+448+28.002+448C30.211+448+32.002+449.791+32.002+452L32.002+460ZM120.208+421.7L112.847+436.424C112.292+437.534+112.002+438.759+112.002+440L112.002+464L48.002+464L48.002+440C48.002+438.758+47.713+437.533+47.157+436.422L39.796+421.7L32.94+360L127.064+360L120.208+421.7ZM136.002+452L136.002+460C136.002+462.209+134.211+464+132.002+464C129.793+464+128.002+462.209+128.002+460L128.002+452C128.002+449.791+129.793+448+132.002+448C134.211+448+136.002+449.791+136.002+452ZM136.002+344L24.002+344L24.002+328L136.002+328L136.002+344Z" opacity="1" fill="#fff8f8"/>
<path d="M464.003+312L454.249+312L448.903+290.606C447.353+284.367+441.747+279.99+435.318+280L364.688+280C358.261+279.989+352.655+284.363+351.103+290.6L345.753+312L336.003+312C331.585+312+328.003+315.582+328.003+320L328.003+352C328.003+356.418+331.585+360+336.003+360L336.843+360L344.052+424.884C344.158+425.822+344.429+426.734+344.852+427.578L347.086+432.047C336.42+432.54+328.02+441.322+328.003+452L328.003+460C327.985+471.028+336.911+479.982+347.939+480C350.504+480.004+353.046+479.514+355.426+478.556C356.767+479.497+358.365+480.001+360.003+480L440.003+480C441.641+480.001+443.239+479.497+444.58+478.556C454.811+482.673+466.442+477.717+470.559+467.487C471.517+465.107+472.007+462.565+472.003+460L472.003+452C471.986+441.324+463.589+432.542+452.924+432.047L455.158+427.578C455.581+426.734+455.852+425.822+455.958+424.884L463.163+360L464.003+360C468.421+360+472.003+356.418+472.003+352L472.003+320C472.003+315.582+468.421+312+464.003+312ZM366.25+296L433.756+296L437.756+312L362.249+312L366.25+296ZM352.003+460C352.003+462.209+350.212+464+348.003+464C345.794+464+344.003+462.209+344.003+460L344.003+452C344.003+449.791+345.794+448+348.003+448C350.212+448+352.003+449.791+352.003+452L352.003+460ZM440.208+421.7L432.847+436.424C432.292+437.534+432.002+438.759+432.002+440L432.002+464L368.002+464L368.002+440C368.002+438.758+367.713+437.533+367.157+436.422L359.796+421.7L352.94+360L447.064+360L440.208+421.7ZM456.003+452L456.003+460C456.003+462.209+454.212+464+452.003+464C449.794+464+448.003+462.209+448.003+460L448.003+452C448.003+449.791+449.794+448+452.003+448C454.212+448+456.003+449.791+456.003+452ZM456.003+344L344.003+344L344.003+328L456.003+328L456.003+344Z" opacity="1" fill="#fff8f8"/>
<path d="M384.003+424L416.003+424C420.421+424+424.003+420.418+424.003+416L424.003+384C424.003+379.582+420.421+376+416.003+376L384.003+376C379.585+376+376.003+379.582+376.003+384L376.003+416C376.003+420.418+379.585+424+384.003+424ZM392.003+392L408.003+392L408.003+408L392.003+408L392.003+392Z" opacity="1" fill="#fff8f8"/>
<path d="M64.002+424L96.002+424C100.42+424+104.002+420.418+104.002+416C104.002+414.758+103.713+413.533+103.157+412.422L87.157+380.422C85.181+376.47+80.375+374.869+76.423+376.846C74.875+377.62+73.621+378.875+72.847+380.422L56.847+412.422C54.871+416.374+56.473+421.179+60.424+423.155C61.535+423.711+62.76+424+64.002+424ZM80.002+401.889L83.058+408L76.946+408L80.002+401.889Z" opacity="1" fill="#fff8f8"/>
</g>
</g>
</svg>
