<?xml version="1.0" encoding="UTF-8" standalone="no"?> <!-- Created with Vectornator for iOS (http://vectornator.io/) --><!DOCTYPE svg PUBLIC "-//W3C//DTD SVG 1.1//EN" "http://www.w3.org/Graphics/SVG/1.1/DTD/svg11.dtd">
<svg style="fill-rule:evenodd;clip-rule:evenodd;stroke-linecap:round;stroke-linejoin:round;" xmlns:vectornator="http://vectornator.io" xmlns:xlink="http://www.w3.org/1999/xlink" xmlns="http://www.w3.org/2000/svg" xml:space="preserve" version="1.1" viewBox="0 0 496 496">
<metadata>
<vectornator:setting key="RulersVisible" value="1"/>
<vectornator:setting key="Units" value="Points"/>
<vectornator:setting key="DynamicGuides" value="1"/>
<vectornator:setting key="GuidesVisible" value="1"/>
<vectornator:setting key="CMYKEnabledKey" value="0"/>
<vectornator:setting key="SnapToGuides" value="1"/>
<vectornator:setting key="GridSpacing" value="36"/>
</metadata>
<defs/>
<g id="Untitled" vectornator:layerName="Untitled">
<path d="M455.992+288L455.992+200L406.4+200C404.448+194.536+402.16+189.072+399.544+183.64L434.672+148.512L355.48+69.328L320.352+104.448C314.944+101.848+309.472+99.552+304+97.6L304+48L224+48L224+0L0+0L0+80L16+80L16+96L0+96L0+176L16+176L16+192L0+192L0+272L40+272L40+312L89.592+312C91.544+317.464+93.832+322.928+96.44+328.36L61.32+363.48L140.512+442.672L175.64+407.552C181.048+410.152+186.52+412.448+191.992+414.4L191.992+464L271.992+464L271.992+496L495.992+496L495.992+288L455.992+288ZM223.984+64L287.992+64L287.992+109.208L293.592+110.976C301.816+113.56+310.096+117.032+318.216+121.272L323.424+124L355.472+91.952L412.04+148.512L379.992+180.568L382.712+185.768C386.976+193.936+390.44+202.216+393.008+210.392L394.768+215.992L439.992+215.992L439.992+287.992L419.048+287.992L403.048+319.992L349.448+319.992C352.008+315.936+354.376+311.76+356.44+307.432L341.984+300.56C338.696+307.488+334.496+313.952+329.752+320L295.776+320C315.28+305.4+327.984+282.184+327.984+256C327.984+211.888+292.096+176+247.984+176C233.904+176+220.08+179.792+207.984+186.768L207.984+176L223.984+176L223.984+154.832C231.816+152.984+239.856+152+247.984+152C305.328+152+351.984+198.656+351.984+256C351.984+266.12+350.536+276.12+347.68+285.72L363.016+290.28C366.312+279.192+367.984+267.664+367.984+256C367.984+189.832+314.152+136+247.984+136C239.888+136+231.856+136.856+223.984+138.456L223.984+96L207.984+96L207.984+80L223.984+80C223.984+80+223.984+64+223.984+64ZM247.992+320C218.384+320+193.216+299.896+186.072+272L223.992+272L223.992+196.68C231.528+193.624+239.6+192+247.992+192C283.28+192+311.992+220.712+311.992+256C311.992+291.288+283.28+320+247.992+320ZM15.992+64L15.992+16L207.992+16L207.992+64L15.992+64ZM191.992+80L191.992+96L31.992+96L31.992+80L191.992+80ZM15.992+160L15.992+112L207.992+112L207.992+160L15.992+160ZM191.992+176L191.992+192L31.992+192L31.992+176L191.992+176ZM39.992+256L15.992+256L15.992+208L207.992+208L207.992+256L143.992+256L127.992+256L55.992+256L39.992+256ZM271.992+448L207.992+448L207.992+402.792L202.392+401.024C194.168+398.44+185.888+394.968+177.768+390.728L172.56+388L140.512+420.048L83.944+363.48L115.992+331.432L113.272+326.232C109.008+318.064+105.544+309.784+102.976+301.608L101.216+296.008L55.992+296.008L55.992+272.008L129.184+272.008C137.048+330.624+187.256+376.008+247.992+376.008C256.104+376.008+264.128+375.152+271.992+373.552C271.992+373.552+271.992+448+271.992+448ZM271.992+357.176C264.168+359.024+256.128+360+247.992+360C196.096+360+153.088+321.752+145.352+272L169.6+272C177.064+308.944+209.568+336+247.992+336C256.352+336+264.408+334.696+271.992+332.312C271.992+332.312+271.992+357.176+271.992+357.176ZM479.992+480L287.992+480L287.992+384L479.992+384L479.992+480ZM479.992+368L287.992+368L287.992+336L412.936+336L428.936+304L439.992+304L455.992+304L479.992+304L479.992+368Z" opacity="1" fill="#f8f5f5"/>
<path d="M440+320L464+320L464+320L464+336L464+336L440+336L440+336L440+320L440+320Z" opacity="1" fill="#f8f2f2"/>
</g>
</svg>
