<?xml version="1.0" encoding="UTF-8" standalone="no"?> <!-- Created with Vectornator for iOS (http://vectornator.io/) --><!DOCTYPE svg PUBLIC "-//W3C//DTD SVG 1.1//EN" "http://www.w3.org/Graphics/SVG/1.1/DTD/svg11.dtd">
<svg style="fill-rule:evenodd;clip-rule:evenodd;stroke-linecap:round;stroke-linejoin:round;" xmlns:vectornator="http://vectornator.io" xmlns:xlink="http://www.w3.org/1999/xlink" xmlns="http://www.w3.org/2000/svg" xml:space="preserve" version="1.1" viewBox="0 0 512.002 512.002">
<metadata>
<vectornator:setting key="DynamicGuides" value="1"/>
<vectornator:setting key="Units" value="Points"/>
<vectornator:setting key="GuidesVisible" value="1"/>
<vectornator:setting key="RulersVisible" value="1"/>
<vectornator:setting key="SnapToGuides" value="1"/>
<vectornator:setting key="GridSpacing" value="36"/>
</metadata>
<defs/>
<g id="Untitled" vectornator:layerName="Untitled">
<path d="M465.828+394.664C466.101+393.253+466.249+391.798+466.249+390.309L466.249+372.129L466.249+361.697C466.249+356.175+461.772+351.697+456.249+351.697C450.726+351.697+446.249+356.175+446.249+361.697L446.249+372.129L446.249+390.309C446.249+391.853+444.945+393.157+443.401+393.157L363.086+393.157C361.543+393.157+360.238+391.853+360.238+390.309L360.238+242.116L396.536+189.883C397.7+188.207+398.324+186.216+398.324+184.176L398.324+131.82L408.162+131.82L408.162+184.175C408.162+186.215+408.786+188.206+409.95+189.882L446.248+242.115L446.248+280.419C446.248+285.941+450.725+290.419+456.248+290.419C461.771+290.419+466.248+285.941+466.248+280.419L466.248+238.981C466.248+238.676+466.229+238.374+466.202+238.073C466.193+237.969+466.179+237.868+466.167+237.765C466.143+237.569+466.113+237.372+466.077+237.178C466.056+237.063+466.036+236.948+466.011+236.834C465.967+236.632+465.913+236.433+465.857+236.233C465.817+236.092+465.774+235.952+465.728+235.813C465.66+235.608+465.587+235.404+465.505+235.203C465.457+235.086+465.404+234.973+465.352+234.857C465.282+234.702+465.208+234.547+465.13+234.395C465.073+234.286+465.016+234.177+464.955+234.071C464.861+233.903+464.759+233.739+464.655+233.577C464.603+233.496+464.554+233.413+464.499+233.334C464.486+233.314+464.474+233.293+464.461+233.273L428.163+181.04L428.163+131.82L432.336+131.82C437.859+131.82+442.336+127.342+442.336+121.82C442.336+116.65+438.411+112.396+433.378+111.875C438.411+111.354+442.336+107.1+442.336+101.93C442.336+96.408+437.859+91.93+432.336+91.93L374.151+91.93C368.628+91.93+364.151+96.408+364.151+101.93C364.151+107.1+368.076+111.354+373.108+111.875C368.075+112.396+364.151+116.65+364.151+121.82C364.151+127.342+368.628+131.82+374.151+131.82L378.325+131.82L378.325+181.042L342.027+233.275C340.863+234.951+340.239+236.942+340.239+238.982L340.239+390.308C340.239+391.273+340.306+392.222+340.423+393.156L319.98+393.156C320.097+392.222+320.164+391.273+320.164+390.308L320.164+238.982C320.164+236.942+319.54+234.951+318.376+233.275L282.077+181.042L282.077+131.82L286.25+131.82C291.773+131.82+296.25+127.342+296.25+121.82C296.25+116.65+292.325+112.396+287.292+111.875C292.325+111.354+296.25+107.1+296.25+101.93C296.25+96.408+291.773+91.93+286.25+91.93L228.066+91.93C222.543+91.93+218.066+96.408+218.066+101.93C218.066+107.1+221.991+111.354+227.024+111.875C221.991+112.396+218.066+116.65+218.066+121.82C218.066+127.342+222.543+131.82+228.066+131.82L232.238+131.82L232.238+181.042L195.94+233.275C195.926+233.295+195.915+233.316+195.901+233.336C195.846+233.415+195.797+233.498+195.745+233.579C195.641+233.741+195.54+233.905+195.445+234.072C195.384+234.179+195.327+234.289+195.27+234.398C195.192+234.549+195.119+234.703+195.048+234.858C194.996+234.973+194.942+235.088+194.894+235.206C194.812+235.406+194.739+235.61+194.671+235.815C194.625+235.954+194.582+236.094+194.542+236.235C194.485+236.434+194.432+236.633+194.388+236.836C194.363+236.95+194.343+237.066+194.322+237.181C194.286+237.375+194.257+237.57+194.232+237.766C194.22+237.87+194.206+237.971+194.197+238.075C194.17+238.377+194.151+238.679+194.151+238.983L194.151+270.856C194.151+276.378+198.628+280.856+204.151+280.856C209.674+280.856+214.151+276.378+214.151+270.856L214.151+242.117L250.449+189.884C251.613+188.208+252.237+186.217+252.237+184.177L252.237+131.82L262.076+131.82L262.076+184.175C262.076+186.215+262.7+188.206+263.864+189.882L300.163+242.115L300.163+390.307C300.163+391.851+298.858+393.155+297.314+393.155L216.999+393.155C215.456+393.155+214.151+391.851+214.151+390.307L214.151+352.131L214.151+348.869C214.151+343.347+209.674+338.869+204.151+338.869C198.628+338.869+194.151+343.347+194.151+348.869L194.151+352.131L194.151+390.307C194.151+391.272+194.218+392.221+194.335+393.155L171.579+393.155C171.696+392.221+171.763+391.272+171.763+390.307L171.763+238.982C171.763+236.942+171.139+234.951+169.975+233.275L133.677+181.042L133.677+131.82L137.849+131.82C143.372+131.82+147.849+127.342+147.849+121.82C147.849+116.298+143.372+111.82+137.849+111.82L79.665+111.82C74.142+111.82+69.665+116.298+69.665+121.82C69.665+127.342+74.142+131.82+79.665+131.82L83.838+131.82L83.838+181.042L47.539+233.275C46.375+234.951+45.751+236.942+45.751+238.982L45.751+390.308C45.751+391.797+45.899+393.252+46.172+394.663C19.767+400.703+0.00099957+424.367+0.00099957+452.577C0.00099957+485.344+26.658+512.001+59.423+512.001L452.579+512.001C485.345+512.001+512.002+485.344+512.002+452.577C512.002+424.367+492.235+400.702+465.828+394.664ZM65.751+242.116L102.05+189.883C103.214+188.207+103.838+186.216+103.838+184.176L103.838+131.82L113.677+131.82L113.677+184.175C113.677+186.215+114.301+188.206+115.465+189.882L151.763+242.115L151.763+342.132L136.73+342.132C142.647+331.232+146.159+316.601+146.159+300.067C146.159+264.683+130.079+238.001+108.757+238.001C87.434+238.001+71.355+264.684+71.355+300.067C71.355+316.6+74.867+331.232+80.784+342.132L65.751+342.132L65.751+242.116ZM126.158+300.068C126.158+325.355+115.684+342.133+108.756+342.133C101.829+342.133+91.354+325.355+91.354+300.068C91.354+274.78+101.828+258.002+108.756+258.002C115.684+258.002+126.158+274.78+126.158+300.068ZM65.751+362.133L151.763+362.133L151.763+390.309C151.763+391.853+150.459+393.157+148.915+393.157L68.6+393.157C67.056+393.157+65.751+391.853+65.751+390.309C65.751+390.309+65.751+362.133+65.751+362.133ZM59.423+492.003C37.686+492.003+20.001+474.317+20.001+452.579C20.001+430.842+37.686+413.157+59.423+413.157C81.161+413.157+98.846+430.842+98.846+452.579C98.846+474.316+81.161+492.003+59.423+492.003ZM103.833+492.003C113.163+481.505+118.846+467.696+118.846+452.579C118.846+437.463+113.163+423.655+103.834+413.157L408.169+413.157C398.839+423.655+393.157+437.463+393.157+452.579C393.157+467.696+398.84+481.505+408.17+492.003L103.833+492.003ZM452.579+492.003C430.842+492.003+413.157+474.317+413.157+452.579C413.157+430.842+430.842+413.157+452.579+413.157C474.317+413.157+492.002+430.842+492.002+452.579C492.002+474.316+474.317+492.003+452.579+492.003Z" opacity="1" fill="#fffbfb"/>
<path d="M59.423+432.578C48.407+432.578+39.423+441.562+39.423+452.578C39.423+463.594+48.407+472.578+59.423+472.578C70.439+472.578+79.423+463.594+79.423+452.578C79.423+441.562+70.439+432.578+59.423+432.578Z" opacity="1" fill="#fffbfb"/>
<path d="M452.579+432.578C441.563+432.578+432.579+441.562+432.579+452.578C432.579+463.594+441.563+472.578+452.579+472.578C463.595+472.578+472.579+463.594+472.579+452.578C472.579+441.563+463.595+432.578+452.579+432.578Z" opacity="1" fill="#fffbfb"/>
<path d="M292.655+442.578L221.658+442.578C216.135+442.578+211.658+447.056+211.658+452.578C211.658+458.1+216.135+462.578+221.658+462.578L292.655+462.578C298.178+462.578+302.655+458.1+302.655+452.578C302.655+447.056+298.178+442.578+292.655+442.578Z" opacity="1" fill="#fffbfb"/>
<path d="M257.158+238.002C235.835+238.002+219.756+264.685+219.756+300.068C219.756+335.451+235.836+362.133+257.158+362.133C278.48+362.133+294.56+335.451+294.56+300.068C294.56+264.684+278.48+238.002+257.158+238.002ZM257.157+342.133C250.229+342.133+239.755+325.355+239.755+300.068C239.755+274.78+250.229+258.002+257.157+258.002C264.085+258.002+274.559+274.78+274.559+300.068C274.559+325.355+264.085+342.133+257.157+342.133Z" opacity="1" fill="#fffbfb"/>
<path d="M403.245+238.002C381.922+238.002+365.842+264.685+365.842+300.068C365.842+335.451+381.922+362.133+403.245+362.133C424.568+362.133+440.647+335.451+440.647+300.068C440.647+264.684+424.567+238.002+403.245+238.002ZM403.245+342.133C396.317+342.133+385.842+325.356+385.842+300.068C385.842+274.78+396.317+258.002+403.245+258.002C410.173+258.002+420.647+274.78+420.647+300.068C420.647+325.355+410.173+342.133+403.245+342.133Z" opacity="1" fill="#fffbfb"/>
<path d="M456.249+322.139C450.726+322.139+446.249+326.617+446.249+332.139L446.249+332.614C446.249+338.136+450.726+342.614+456.249+342.614C461.772+342.614+466.249+338.136+466.249+332.614L466.249+332.139C466.249+326.616+461.772+322.139+456.249+322.139Z" opacity="1" fill="#fffbfb"/>
<path d="M123.936+9.772C115.39+1.11+103.362+0+93.838+0L10+0C4.477+0+0+4.479+0+10L0+39.838C0+45.36+4.477+49.838+10+49.838L83.838+49.838L83.838+64.135C83.838+69.657+88.315+74.135+93.838+74.135L98.757+74.135L98.757+85.573C98.757+91.095+103.234+95.573+108.757+95.573C114.28+95.573+118.757+91.095+118.757+85.573L118.757+74.135L123.677+74.135C129.2+74.135+133.677+69.657+133.677+64.135L133.677+39.904C133.848+26.446+130.661+16.589+123.936+9.772ZM113.678+39.703C113.677+39.748+113.677+39.794+113.677+39.839L113.677+54.136L103.838+54.136L103.838+39.839C103.838+34.317+99.361+29.839+93.838+29.839L20+29.839L20+20L93.838+20C102.314+20+107.057+21.143+109.698+23.819C113.118+27.286+113.75+34.37+113.678+39.703Z" opacity="1" fill="#fffbfb"/>
<path d="M204.151+289.941C198.628+289.941+194.151+294.419+194.151+299.941L194.151+300.416C194.151+305.939+198.628+310.416+204.151+310.416C209.674+310.416+214.151+305.938+214.151+300.416L214.151+299.941C214.151+294.419+209.674+289.941+204.151+289.941Z" opacity="1" fill="#fffbfb"/>
</g>
</svg>
