<?xml version="1.0" encoding="UTF-8" standalone="no"?> <!-- Created with Vectornator for iOS (http://vectornator.io/) --><!DOCTYPE svg PUBLIC "-//W3C//DTD SVG 1.1//EN" "http://www.w3.org/Graphics/SVG/1.1/DTD/svg11.dtd">
<svg style="fill-rule:evenodd;clip-rule:evenodd;stroke-linecap:round;stroke-linejoin:round;" xmlns:vectornator="http://vectornator.io" xmlns:xlink="http://www.w3.org/1999/xlink" xmlns="http://www.w3.org/2000/svg" xml:space="preserve" version="1.1" viewBox="0 0 504.709 504">
<metadata>
<vectornator:setting key="DynamicGuides" value="1"/>
<vectornator:setting key="Units" value="Points"/>
<vectornator:setting key="GuidesVisible" value="1"/>
<vectornator:setting key="RulersVisible" value="1"/>
<vectornator:setting key="SnapToGuides" value="1"/>
<vectornator:setting key="GridSpacing" value="36"/>
</metadata>
<defs/>
<g id="Untitled" vectornator:layerName="Untitled">
<path d="M135.254+269.086C79.6484+269.145+34.5898+314.207+34.5312+369.809C34.2617+387.055+46.4453+401.996+63.3945+405.203C64.3945+405.324+65.3984+405.387+66.4023+405.387C76.7344+405.387+88.375+398.867+93.0352+380.207C101.906+344.734+109.234+327.84+126.859+327.84C154.641+327.84+171.234+311.32+171.234+295.359C171.234+282.281+160.105+269.086+135.254+269.086ZM148.457+304.977C142.082+309.238+134.52+311.363+126.859+311.055C93.0234+311.055+84+347.145+76.75+376.16C75.5+381.156+72.3945+389.355+65.4531+388.543C56.9375+386.375+51.0625+378.59+51.3164+369.809C51.3672+323.473+88.918+285.926+135.254+285.875C146.734+285.875+154.449+289.684+154.449+295.359C154.008+299.305+151.805+302.84+148.457+304.977Z" opacity="1" fill="#fffdfd"/>
<path d="M461.582+7.875L245.676+223.762C239.957+222.285+233.883+223.875+229.621+227.957L203.332+254.246C144.879+219.711+69.8594+234.047+28.2617+287.703C-13.3359+341.359-8.52734+417.586+39.4844+465.59C87.4961+513.594+163.719+518.387+217.371+476.777C271.02+435.172+285.344+360.152+250.797+301.703L277.094+275.434C281.379+271.238+283.027+265.035+281.391+259.266L497.188+43.4883C503.633+37.1445+506.184+27.832+503.867+19.0859C501.555+10.3437+494.727+3.51562+485.98+1.19531C477.238-1.1211+467.926+1.42578+461.582+7.875ZM135.254+487.316C84.8398+487.348+40.0234+455.215+23.8672+407.461C7.71484+359.703+23.8242+306.965+63.9023+276.387C103.984+245.805+159.105+244.199+200.898+272.395L200.98+272.453C243.758+301.363+262.648+354.812+247.547+404.184C232.441+453.555+186.883+487.281+135.254+487.316ZM241.344+287.434C240.816+286.754+240.18+286.168+239.668+285.504C237.895+283.312+235.992+281.25+234.086+279.176C231.527+276.379+228.852+273.699+226.062+271.145C223.922+269.16+221.773+267.187+219.496+265.352C218.852+264.832+218.289+264.219+217.633+263.672L241.512+239.793L265.25+263.531L241.344+287.434ZM485.316+31.6094L271.16+245.77L259.289+233.902L473.449+19.7422C476.727+16.4648+482.039+16.4648+485.316+19.7422C488.594+23.0195+488.594+28.332+485.316+31.6094Z" opacity="1" fill="#fffdfd"/>
<path d="M110.07+411.773C96.1641+411.773+84.8906+423.047+84.8906+436.953C84.8906+450.863+96.1641+462.137+110.07+462.137C123.98+462.137+135.254+450.863+135.254+436.953C135.254+423.047+123.98+411.773+110.07+411.773ZM110.07+445.348C105.438+445.348+101.68+441.59+101.68+436.953C101.68+432.32+105.438+428.562+110.07+428.562C114.707+428.562+118.465+432.32+118.465+436.953C118.465+441.59+114.707+445.348+110.07+445.348Z" opacity="1" fill="#fffdfd"/>
<path d="M110.07+201.938C110.07+206.574+113.828+210.332+118.465+210.332C123.102+210.332+126.859+206.574+126.859+201.938C126.859+200.715+126.984+200.52+128.379+198.781C135.309+191.012+135.309+179.277+128.379+171.504C126.984+169.785+126.859+169.59+126.859+168.363C126.859+167.141+126.984+166.965+128.379+165.227C131.742+161.48+133.594+156.613+133.574+151.578C133.574+146.941+129.816+143.184+125.18+143.184C120.543+143.184+116.785+146.941+116.785+151.578C116.785+152.785+116.66+152.98+115.266+154.719C108.34+162.488+108.34+174.219+115.266+181.988C116.66+183.727+116.785+183.918+116.785+185.145C116.785+186.367+116.66+186.563+115.266+188.301C111.902+192.043+110.051+196.906+110.07+201.938Z" opacity="1" fill="#fffdfd"/>
<path d="M177.219+118.004C177.199+123.039+179.051+127.898+182.414+131.645C183.809+133.383+183.934+133.574+183.934+134.801C183.934+139.434+187.691+143.191+192.328+143.191C196.965+143.191+200.723+139.434+200.723+134.801C200.742+129.766+198.891+124.902+195.527+121.16C194.133+119.414+194.008+119.223+194.008+118.004C194.008+116.789+194.133+116.586+195.527+114.848C202.453+107.078+202.453+95.3477+195.527+87.5781C194.133+85.832+194.008+85.6484+194.008+84.4297C194.008+79.793+190.25+76.0352+185.613+76.0352C180.977+76.0352+177.219+79.793+177.219+84.4297C177.203+89.4609+179.055+94.3203+182.414+98.0625C183.809+99.8008+183.934+99.9922+183.934+101.199C183.934+102.41+183.809+102.617+182.414+104.355C179.047+108.102+177.195+112.969+177.219+118.004Z" opacity="1" fill="#fffdfd"/>
<path d="M111.75+59.25C111.75+63.8867+115.508+67.6445+120.145+67.6445C124.781+67.6445+128.539+63.8867+128.539+59.25C128.539+58.0234+128.664+57.832+130.059+56.0938C136.984+48.3203+136.984+36.5898+130.059+28.8164C128.664+27.0781+128.539+26.8867+128.539+25.6602C128.539+24.4336+128.664+24.2578+130.059+22.5195C133.418+18.7773+135.27+13.9219+135.254+8.89062C135.254+4.25391+131.496+0.496094+126.859+0.496094C122.223+0.496094+118.465+4.25391+118.465+8.89062C118.465+10.1055+118.34+10.293+116.945+12.0273C110.02+19.7969+110.02+31.5273+116.945+39.3008C118.34+41.0352+118.465+41.2305+118.465+42.4531C118.465+43.6797+118.34+43.875+116.945+45.6094C113.582+49.3555+111.73+54.2148+111.75+59.25Z" opacity="1" fill="#fffdfd"/>
</g>
</svg>
