<?xml version="1.0" encoding="UTF-8" standalone="no"?> <!-- Created with Vectornator for iOS (http://vectornator.io/) --><!DOCTYPE svg PUBLIC "-//W3C//DTD SVG 1.1//EN" "http://www.w3.org/Graphics/SVG/1.1/DTD/svg11.dtd">
<svg style="fill-rule:evenodd;clip-rule:evenodd;stroke-linecap:round;stroke-linejoin:round;" xmlns:vectornator="http://vectornator.io" xmlns:xlink="http://www.w3.org/1999/xlink" xmlns="http://www.w3.org/2000/svg" xml:space="preserve" version="1.1" viewBox="0 0 512.455 512.455">
<metadata>
<vectornator:setting key="DynamicGuides" value="1"/>
<vectornator:setting key="Units" value="Points"/>
<vectornator:setting key="GuidesVisible" value="1"/>
<vectornator:setting key="RulersVisible" value="1"/>
<vectornator:setting key="SnapToGuides" value="1"/>
<vectornator:setting key="GridSpacing" value="36"/>
</metadata>
<defs/>
<g id="Untitled" vectornator:layerName="Untitled">
<g opacity="1">
<path d="M450.708+153.225C440.27+127.966+405.275+85.419+404.929+85.173C392.238+70.893+374.496+62.36+355.516+61.352C358.929+47.638+357.929+32.978+352.49+19.807L352.459+19.73C351.16+12.162+341.548+7.59501+320.255+4.21901C303.089+1.49801+280.352+7.29412e-06+256.228+7.29412e-06C232.104+7.29412e-06+209.367+1.49801+192.202+4.22001C170.909+7.59601+161.297+12.163+159.998+19.731L159.966+19.809C154.527+32.979+153.527+47.639+156.941+61.353C137.961+62.361+120.218+70.895+107.528+85.174C107.181+85.419+78.181+119.358+68.289+138.953C66.423+142.651+67.906+147.162+71.604+149.028C75.3+150.895+79.813+149.411+81.679+145.713C90.576+128.088+117.176+96.965+117.707+96.333C128.434+83.572+144.119+76.252+160.742+76.252L165.687+76.252L181.646+83.67C200.057+92.228+219.517+97.446+239.21+99.358L239.21+186.445C239.21+190.587+242.567+193.945+246.71+193.945C250.853+193.945+254.21+190.587+254.21+186.445L254.21+100.17C254.888+100.178+255.566+100.198+256.244+100.198C258.586+100.198+260.928+100.135+263.268+100.042L263.268+155.211C263.268+159.353+266.626+162.711+270.768+162.711C274.911+162.711+278.268+159.353+278.268+155.211L278.268+98.801C296.294+96.531+314.067+91.48+330.952+83.618L346.773+76.251L351.715+76.251C368.338+76.251+384.024+83.57+394.75+96.332C395.281+96.964+427.4+136.093+436.846+158.954C446.53+182.387+451.439+207.127+451.439+232.486L451.439+450.953L386.257+459.104L385.585+432.661C385.647+432.272+385.689+431.876+385.689+431.469L385.689+355.489C385.689+351.347+382.331+347.989+378.189+347.989C374.046+347.989+370.689+351.347+370.689+355.489L370.689+423.969L141.903+423.969L141.903+225.69C141.903+221.548+138.546+218.19+134.403+218.19C130.26+218.19+126.903+221.548+126.903+225.69L126.903+431.394L126.199+459.104L61.017+450.953L61.017+232.486C61.017+211.97+64.273+191.692+70.693+172.213C71.99+168.279+69.852+164.039+65.918+162.742C61.984+161.446+57.744+163.583+56.447+167.517C49.526+188.513+46.017+210.371+46.017+232.485L46.018+488.091C46.018+495.789+52.106+502.091+59.719+502.439L126.223+512.454L126.785+512.454C134.705+512.454+141.148+506.011+141.148+498.091L141.148+490.602L371.386+490.602L371.386+498.091C371.386+506.01+377.829+512.454+385.748+512.454L386.311+512.454L452.736+502.439C460.35+502.092+466.437+495.789+466.437+488.091L466.437+232.486C466.438+205.152+461.146+178.485+450.708+153.225ZM324.619+70.021C281.203+90.237+231.396+90.254+187.967+70.067L173.191+63.199C168.681+51.091+168.882+37.516+173.83+25.535L174.276+24.455C174.304+24.386+174.332+24.318+174.358+24.248C180.107+20.783+208.005+15.001+256.228+15.001C304.451+15.001+332.349+20.783+338.098+24.248C338.124+24.317+338.152+24.386+338.18+24.455L338.625+25.534C343.574+37.517+343.775+51.093+339.264+63.202L324.619+70.021ZM219.285+438.97L248.727+438.97L248.727+475.604L219.285+475.604L219.285+438.97ZM204.285+475.603L174.843+475.603L174.843+438.97L204.285+438.97L204.285+475.603ZM263.728+438.97L293.169+438.97L293.169+475.604L263.728+475.604L263.728+438.97ZM308.169+438.97L337.611+438.97L337.611+475.604L308.169+475.604L308.169+438.97ZM61.019+487.467L61.019+466.07L126.149+474.214L126.149+497.274L61.019+487.467ZM140.989+467.574L141.715+438.97L159.843+438.97L159.843+475.604L141.149+475.604L141.149+467.575L140.989+467.575L140.989+467.574ZM352.611+475.603L352.611+438.97L370.74+438.97L371.466+467.574L371.387+467.574L371.387+475.603L352.611+475.603ZM386.387+497.274L386.387+474.204L451.438+466.07L451.438+487.467L386.387+497.274Z" opacity="1" fill="#fffbfb"/>
<path d="M378.188+332.989C382.33+332.989+385.688+329.631+385.688+325.489L385.688+225.69C385.688+221.548+382.33+218.19+378.188+218.19C374.045+218.19+370.688+221.548+370.688+225.69L370.688+325.489C370.688+329.631+374.045+332.989+378.188+332.989Z" opacity="1" fill="#fffbfb"/>
<path d="M308.444+30.556L297.718+34.879C271.379+45.495+241.162+45.504+214.816+34.903L204.006+30.554C200.164+29.009+195.794+30.87+194.248+34.712C192.702+38.555+194.563+42.923+198.406+44.47L209.216+48.819C224.159+54.832+240.196+57.837+256.237+57.837C272.3+57.837+288.365+54.821+303.326+48.791L314.052+44.468C317.894+42.919+319.753+38.55+318.204+34.708C316.656+30.868+312.29+29.008+308.444+30.556Z" opacity="1" fill="#fffbfb"/>
</g>
</g>
</svg>
