<?xml version="1.0" encoding="UTF-8" standalone="no"?> <!-- Created with Vectornator for iOS (http://vectornator.io/) --><!DOCTYPE svg PUBLIC "-//W3C//DTD SVG 1.1//EN" "http://www.w3.org/Graphics/SVG/1.1/DTD/svg11.dtd">
<svg style="fill-rule:evenodd;clip-rule:evenodd;stroke-linecap:round;stroke-linejoin:round;" xmlns:vectornator="http://vectornator.io" xmlns:xlink="http://www.w3.org/1999/xlink" xmlns="http://www.w3.org/2000/svg" xml:space="preserve" version="1.1" viewBox="0 0 31.685 31.685">
<metadata>
<vectornator:setting key="DynamicGuides" value="1"/>
<vectornator:setting key="Units" value="Points"/>
<vectornator:setting key="GuidesVisible" value="1"/>
<vectornator:setting key="RulersVisible" value="1"/>
<vectornator:setting key="SnapToGuides" value="1"/>
<vectornator:setting key="GridSpacing" value="36"/>
</metadata>
<defs/>
<g id="Untitled" vectornator:layerName="Untitled">
<path d="M22.507+0L9.175+0C7.9+0+6.87+1.034+6.87+2.309L6.87+29.379C6.87+30.65+7.9+31.685+9.175+31.685L22.507+31.685C23.78+31.685+24.814+30.651+24.814+29.379L24.814+2.309C24.813+1.034+23.78+0+22.507+0ZM23.085+25.672L8.599+25.672L8.599+3.895L23.085+3.895C23.085+3.895+23.085+25.672+23.085+25.672ZM18.932+2.343L12.751+2.343L12.751+1.669L18.933+1.669L18.932+2.343L18.932+2.343ZM21.577+2.035C21.577+2.361+21.311+2.625+20.986+2.625C20.66+2.625+20.395+2.36+20.395+2.035C20.395+1.71+20.66+1.445+20.986+1.445C21.312+1.444+21.577+1.709+21.577+2.035ZM18.655+29.225L13.026+29.225L13.026+27.493L18.655+27.493L18.655+29.225Z" opacity="1" fill="#f9f8f8"/>
</g>
</svg>
