<?xml version="1.0" encoding="UTF-8" standalone="no"?> <!-- Created with Vectornator for iOS (http://vectornator.io/) --><!DOCTYPE svg PUBLIC "-//W3C//DTD SVG 1.1//EN" "http://www.w3.org/Graphics/SVG/1.1/DTD/svg11.dtd">
<svg style="fill-rule:evenodd;clip-rule:evenodd;stroke-linecap:round;stroke-linejoin:round;" xmlns:vectornator="http://vectornator.io" xmlns:xlink="http://www.w3.org/1999/xlink" xmlns="http://www.w3.org/2000/svg" xml:space="preserve" version="1.1" viewBox="0 0 512 512">
<metadata>
<vectornator:setting key="DynamicGuides" value="1"/>
<vectornator:setting key="Units" value="Points"/>
<vectornator:setting key="GuidesVisible" value="1"/>
<vectornator:setting key="RulersVisible" value="1"/>
<vectornator:setting key="SnapToGuides" value="1"/>
<vectornator:setting key="GridSpacing" value="36"/>
</metadata>
<defs/>
<g id="Untitled" vectornator:layerName="Untitled">
<path d="M430.125+337.058L10+337.058C4.478+337.058+0+341.536+0+347.058L0+416.398C0+421.92+4.478+426.398+10+426.398L168.814+426.398C174.336+426.398+178.814+421.92+178.814+416.398C178.814+410.876+174.336+406.398+168.814+406.398L137.376+406.398L137.376+357.058L404.352+357.058C401.199+364.085+399.375+372.538+399.375+381.728C399.375+390.917+401.198+399.371+404.352+406.398L250.092+406.398C244.57+406.398+240.092+410.876+240.092+416.398C240.092+421.92+244.57+426.398+250.092+426.398L430.125+426.398C447.368+426.398+460.875+406.777+460.875+381.728C460.875+356.679+447.368+337.058+430.125+337.058ZM117.377+406.398L20+406.398L20+357.058L117.377+357.058L117.377+406.398ZM430.125+406.398C426.336+406.398+419.376+397.032+419.376+381.728C419.376+366.424+426.336+357.058+430.125+357.058C433.915+357.058+440.875+366.424+440.875+381.728C440.875+397.032+433.915+406.398+430.125+406.398Z" opacity="1" fill="#fefbfb"/>
<path d="M464.935+156.81L404.695+156.81C389.77+156.81+377.628+144.668+377.628+129.744C377.628+124.222+373.15+119.744+367.628+119.744C362.105+119.744+357.628+124.222+357.628+129.744C357.628+141.132+361.695+151.587+368.451+159.736L325.37+159.736C310.445+159.736+298.303+147.593+298.303+132.668C298.303+117.743+310.446+105.602+325.37+105.602C330.892+105.602+335.37+101.124+335.37+95.602C335.37+90.08+330.892+85.602+325.37+85.602C299.417+85.602+278.303+106.716+278.303+132.668C278.303+158.621+299.417+179.736+325.37+179.736L371.479+179.736C386.404+179.736+398.546+191.878+398.546+206.802C398.546+217.094+392.704+226.409+383.532+231.004C357.86+232.229+337.35+253.494+337.35+279.464C337.35+297.218+347.087+313.555+362.763+322.098C364.283+322.927+365.922+323.32+367.539+323.32C371.081+323.32+374.514+321.433+376.328+318.103C378.972+313.254+377.182+307.18+372.334+304.537C363.091+299.499+357.35+289.892+357.35+279.464C357.35+263.747+370.13+250.959+385.844+250.945C385.855+250.945+385.865+250.947+385.875+250.947C386.535+250.947+387.201+250.88+387.864+250.744C388.544+250.606+389.198+250.398+389.82+250.131C407.27+242.699+418.545+225.696+418.545+206.802C418.545+195.414+414.478+184.959+407.723+176.81L464.934+176.81C479.859+176.81+492+188.952+492+203.876C492+218.802+479.858+230.944+464.934+230.944L444.989+230.944C418.235+230.944+396.469+252.71+396.469+279.464L396.469+317.985C396.469+323.507+400.946+327.985+406.469+327.985C411.991+327.985+416.469+323.507+416.469+317.985L416.469+279.464C416.469+263.738+429.263+250.944+444.989+250.944L464.934+250.944C490.886+250.944+512+229.829+512+203.876C512.001+177.924+490.887+156.81+464.935+156.81Z" opacity="1" fill="#fefbfb"/>
<path d="M363.224+90.652C357.305+90.652+352.478+95.478+352.478+101.398C352.478+107.316+357.305+112.144+363.224+112.144C369.143+112.144+373.971+107.316+373.971+101.398C373.971+95.478+369.143+90.652+363.224+90.652Z" opacity="1" fill="#fefbfb"/>
<path d="M198.374+406.398L197.899+406.398C192.377+406.398+187.899+410.876+187.899+416.398C187.899+421.92+192.377+426.398+197.899+426.398L198.374+426.398C203.897+426.398+208.374+421.92+208.374+416.398C208.374+410.876+203.896+406.398+198.374+406.398Z" opacity="1" fill="#fefbfb"/>
</g>
</svg>
