<?xml version="1.0" encoding="UTF-8" standalone="no"?> <!-- Created with Vectornator for iOS (http://vectornator.io/) --><!DOCTYPE svg PUBLIC "-//W3C//DTD SVG 1.1//EN" "http://www.w3.org/Graphics/SVG/1.1/DTD/svg11.dtd">
<svg style="fill-rule:evenodd;clip-rule:evenodd;stroke-linecap:round;stroke-linejoin:round;" xmlns:vectornator="http://vectornator.io" xmlns:xlink="http://www.w3.org/1999/xlink" xmlns="http://www.w3.org/2000/svg" xml:space="preserve" version="1.1" viewBox="0 0 64 64">
<metadata>
<vectornator:setting key="DynamicGuides" value="1"/>
<vectornator:setting key="Units" value="Points"/>
<vectornator:setting key="GuidesVisible" value="1"/>
<vectornator:setting key="RulersVisible" value="1"/>
<vectornator:setting key="SnapToGuides" value="1"/>
<vectornator:setting key="GridSpacing" value="36"/>
</metadata>
<defs/>
<g id="Untitled" vectornator:layerName="Untitled">
<g opacity="1">
<path d="M60+27L56.816+27C56.402+25.839+55.302+25+54+25L51+25L51+20C51+18.346+49.654+17+48+17L23+17L23+15L28.382+15C29.085+15.615+29.994+16+31+16C33.206+16+35+14.206+35+12C35+9.794+33.206+8+31+8C29.994+8+29.085+8.385+28.382+9L23+9L23+8C23+6.698+22.161+5.598+21+5.184L21+4C21+2.346+19.654+1+18+1C16.346+1+15+2.346+15+4L15+5.184C13.839+5.598+13+6.698+13+8L13+9L7.618+9C6.915+8.385+6.006+8+5+8C2.794+8+1+9.794+1+12C1+14.206+2.794+16+5+16C6.006+16+6.915+15.615+7.618+15L13+15L13+17L12+17C10.346+17+9+18.346+9+20L9+24C9+25.383+9.945+26.539+11.22+26.884C11.081+27.23+11+27.605+11+28C11+28.771+11.301+29.468+11.78+30C11.3+30.532+11+31.229+11+32C11+32.771+11.301+33.468+11.78+34C11.3+34.532+11+35.229+11+36C11+36.771+11.301+37.468+11.78+38C11.3+38.532+11+39.229+11+40C11+40.771+11.301+41.468+11.78+42C11.3+42.532+11+43.229+11+44C11+44.771+11.301+45.468+11.78+46C11.3+46.532+11+47.229+11+48C11+48.771+11.301+49.468+11.78+50C11.3+50.532+11+51.229+11+52C11+52.395+11.081+52.77+11.22+53.116C9.945+53.461+9+54.617+9+56L9+60C9+61.654+10.346+63+12+63L48+63C49.654+63+51+61.654+51+60L51+53L60+53C61.654+53+63+51.654+63+50L63+30C63+28.346+61.654+27+60+27ZM61+30L61+41L59+41L59+43L61+43L61+47L33+47L33+43L35+43L35+41L33+41L33+30C33+29.448+33.448+29+34+29L37+29L37+32C37+33.654+38.346+35+40+35L54+35C55.654+35+57+33.654+57+32L57+29L60+29C60.552+29+61+29.448+61+30ZM13+52C13+51.448+13.448+51+14+51L18+51C18.552+51+19+51.448+19+52C19+52.552+18.552+53+18+53L14+53C13.448+53+13+52.552+13+52ZM13+48C13+47.448+13.448+47+14+47L18+47C18.552+47+19+47.448+19+48C19+48.552+18.552+49+18+49L14+49C13.448+49+13+48.552+13+48ZM13+44C13+43.448+13.448+43+14+43L18+43C18.552+43+19+43.448+19+44C19+44.552+18.552+45+18+45L14+45C13.448+45+13+44.552+13+44ZM13+40C13+39.448+13.448+39+14+39L18+39C18.552+39+19+39.448+19+40C19+40.552+18.552+41+18+41L14+41C13.448+41+13+40.552+13+40ZM13+36C13+35.448+13.448+35+14+35L18+35C18.552+35+19+35.448+19+36C19+36.552+18.552+37+18+37L14+37C13.448+37+13+36.552+13+36ZM13+32C13+31.448+13.448+31+14+31L18+31C18.552+31+19+31.448+19+32C19+32.552+18.552+33+18+33L14+33C13.448+33+13+32.552+13+32ZM13+28C13+27.448+13.448+27+14+27L18+27C18.552+27+19+27.448+19+28C19+28.552+18.552+29+18+29L14+29C13.448+29+13+28.552+13+28ZM20.22+50C20.7+49.468+21+48.771+21+48C21+47.229+20.699+46.532+20.22+46C20.7+45.468+21+44.771+21+44C21+43.229+20.699+42.532+20.22+42C20.7+41.468+21+40.771+21+40C21+39.229+20.699+38.532+20.22+38C20.7+37.468+21+36.771+21+36C21+35.229+20.699+34.532+20.22+34C20.7+33.468+21+32.771+21+32C21+31.229+20.699+30.532+20.22+30C20.7+29.468+21+28.771+21+28C21+27.646+20.927+27.312+20.815+26.996C21.938+26.977+22.944+26.348+23.448+25.341L24.618+23L43+23L43+25L40+25C38.698+25+37.598+25.839+37.184+27L34+27C32.346+27+31+28.346+31+30L31+52C31+53.654+32.346+55+34+55L41.172+55C41.845+55+42.477+54.768+43+54.362L43+57L24.618+57L23.447+54.658C22.943+53.651+21.937+53.022+20.814+53.003C20.927+52.688+21+52.354+21+52C21+51.229+20.699+50.532+20.22+50ZM54+27C54.552+27+55+27.448+55+28L55+32C55+32.552+54.552+33+54+33L40+33C39.448+33+39+32.552+39+32L39+28C39+27.448+39.448+27+40+27L43+27L43+31L51+31L51+27L54+27ZM31+10C32.103+10+33+10.897+33+12C33+13.103+32.103+14+31+14C29.897+14+29+13.103+29+12C29+10.897+29.897+10+31+10ZM27.142+11C27.058+11.322+27+11.653+27+12C27+12.347+27.058+12.678+27.142+13L23+13L23+11L27.142+11ZM18+3C18.552+3+19+3.448+19+4L19+5L17+5L17+4C17+3.448+17.448+3+18+3ZM5+14C3.897+14+3+13.103+3+12C3+10.897+3.897+10+5+10C6.103+10+7+10.897+7+12C7+13.103+6.103+14+5+14ZM8.858+13C8.942+12.678+9+12.347+9+12C9+11.653+8.942+11.322+8.858+11L13+11L13+13L8.858+13ZM15+8C15+7.448+15.448+7+16+7L20+7C20.552+7+21+7.448+21+8L21+17L15+17L15+8ZM11+20C11+19.448+11.448+19+12+19L48+19C48.552+19+49+19.448+49+20L49+29L45+29L45+21L23.382+21L21.658+24.447C21.488+24.788+21.146+25+20.764+25L18+25L14+25L12+25C11.448+25+11+24.552+11+24L11+20ZM49+60C49+60.552+48.552+61+48+61L12+61C11.448+61+11+60.552+11+60L11+56C11+55.448+11.448+55+12+55L14+55L18+55L20.764+55C21.146+55+21.489+55.212+21.659+55.553L23.382+59L45+59L45+53L49+53L49+60ZM60+51L43.586+51L41.879+52.707C41.692+52.894+41.435+53+41.172+53L34+53C33.448+53+33+52.552+33+52L33+49L61+49L61+50C61+50.552+60.552+51+60+51Z" opacity="1" fill="#fcfafa"/>
<path d="M46+39C44.698+39+43.598+39.839+43.184+41L41+41L41+43L43.184+43C43.598+44.161+44.698+45+46+45C46.956+45+49.708+44.368+50.665+43L53+43L53+41L50.665+41C49.708+39.632+46.956+39+46+39ZM46+43C45.448+43+45+42.552+45+42C45+41.448+45.448+41+46+41C46.826+41+48.436+41.571+48.915+42C48.436+42.429+46.826+43+46+43Z" opacity="1" fill="#fcfafa"/>
<path d="M55+41L57+41L57+43L55+43L55+41Z" opacity="1" fill="#fcfafa"/>
<path d="M37+41L39+41L39+43L37+43L37+41Z" opacity="1" fill="#fcfafa"/>
</g>
</g>
</svg>
