<?xml version="1.0" encoding="UTF-8" standalone="no"?> <!-- Created with Vectornator for iOS (http://vectornator.io/) --><!DOCTYPE svg PUBLIC "-//W3C//DTD SVG 1.1//EN" "http://www.w3.org/Graphics/SVG/1.1/DTD/svg11.dtd">
<svg style="fill-rule:evenodd;clip-rule:evenodd;stroke-linecap:round;stroke-linejoin:round;" xmlns:vectornator="http://vectornator.io" xmlns:xlink="http://www.w3.org/1999/xlink" xmlns="http://www.w3.org/2000/svg" xml:space="preserve" version="1.1" viewBox="0 0 512 512">
<metadata>
<vectornator:setting key="DynamicGuides" value="1"/>
<vectornator:setting key="Units" value="Points"/>
<vectornator:setting key="GuidesVisible" value="1"/>
<vectornator:setting key="RulersVisible" value="1"/>
<vectornator:setting key="SnapToGuides" value="1"/>
<vectornator:setting key="GridSpacing" value="36"/>
</metadata>
<defs/>
<g id="Untitled" vectornator:layerName="Untitled">
<g opacity="1">
<path d="M454.089+372.35C454.089+366.827+458.566+362.35+464.089+362.35C469.612+362.35+474.089+366.827+474.089+372.35C474.089+377.873+469.612+382.35+464.089+382.35C458.566+382.35+454.089+377.873+454.089+372.35Z" opacity="1" fill="#f9f4f4"/>
<path d="M511.23+217.155L461.23+97.155C459.678+93.428+456.037+91+452+91L60+91C55.963+91+52.322+93.428+50.77+97.154L0.770012+217.154C0.275012+218.339+1.19209e-05+219.637+1.19209e-05+221L1.19209e-05+311C1.19209e-05+313.63+1.07001+316.21+2.93001+318.07C4.79001+319.93+7.37001+321+10+321L20.13+321L20.39+341.13C20.41+342.82+20.87+344.49+21.71+345.96L61.71+415.96C63.48+419.07+66.81+421+70.39+421L181+421C184.58+421+187.91+419.07+189.68+415.96L226.8+351L285.19+351L322.32+415.96C324.09+419.07+327.42+421+331+421L441.52+421C447.03+421+451.52+416.51+451.52+411C451.52+405.49+447.03+401+441.52+401L336.8+401L299.68+336.04C297.91+332.93+294.58+331+291+331L221+331C217.42+331+214.09+332.93+212.32+336.04L175.19+401L76.19+401L40.35+338.28L40.129+321L70+321C75.522+321+80+316.522+80+311C80+305.478+75.522+301+70+301L20+301L20+271L196+271C196+276.52+200.48+281+206+281L306+281C311.52+281+316+276.52+316+271L492+271L492+301L442+301C436.478+301+432+305.478+432+311C432+316.522+436.478+321+442+321L472+321L472+332.1C472+337.61+476.48+342.1+482+342.1C487.51+342.1+492+337.61+492+332.1L492+321L502+321C504.63+321+507.21+319.93+509.07+318.07C510.93+316.21+512+313.63+512+311L512+221C512+219.637+511.725+218.339+511.23+217.155ZM66.667+111L445.333+111L487+211L25+211L66.667+111ZM296+261L216+261L216+231L296+231L296+261ZM20+251L20+231L196+231L196+251L20+251ZM316+251L316+231L492+231L492+251L316+251Z" opacity="1" fill="#f9f4f4"/>
</g>
</g>
</svg>
