<?xml version="1.0" encoding="UTF-8" standalone="no"?> <!-- Created with Vectornator for iOS (http://vectornator.io/) --><!DOCTYPE svg PUBLIC "-//W3C//DTD SVG 1.1//EN" "http://www.w3.org/Graphics/SVG/1.1/DTD/svg11.dtd">
<svg style="fill-rule:evenodd;clip-rule:evenodd;stroke-linecap:round;stroke-linejoin:round;" xmlns:vectornator="http://vectornator.io" xmlns:xlink="http://www.w3.org/1999/xlink" xmlns="http://www.w3.org/2000/svg" xml:space="preserve" version="1.1" viewBox="0 0 512 512">
<metadata>
<vectornator:setting key="DynamicGuides" value="1"/>
<vectornator:setting key="Units" value="Points"/>
<vectornator:setting key="GuidesVisible" value="1"/>
<vectornator:setting key="RulersVisible" value="1"/>
<vectornator:setting key="SnapToGuides" value="1"/>
<vectornator:setting key="GridSpacing" value="36"/>
</metadata>
<defs/>
<g id="Untitled" vectornator:layerName="Untitled">
<path d="M135.069+332.43C133.21+330.57+130.63+329.5+128+329.5C125.37+329.5+122.79+330.569+120.93+332.43C119.07+334.291+118+336.87+118+339.5C118+342.13+119.069+344.71+120.93+346.569C122.79+348.43+125.37+349.5+128+349.5C130.63+349.5+133.21+348.43+135.069+346.569C136.929+344.71+138+342.13+138+339.5C138+336.87+136.93+334.29+135.069+332.43Z" opacity="1" fill="#fefafa"/>
<path d="M393.041+109.726L375.872+73.405C379.733+72.02+382.5+68.338+382.5+64C382.5+58.477+378.022+54+372.5+54L296.134+54L300.553+27.865C301.728+20.919+299.793+13.848+295.245+8.468C290.698+3.086+284.049+0+277.004+0L234.996+0C227.951+0+221.302+3.086+216.755+8.467C212.207+13.848+210.273+20.918+211.447+27.864L215.866+54L139.5+54C133.978+54+129.5+58.477+129.5+64C129.5+68.338+132.267+72.02+136.129+73.405L118.959+109.726C118.327+111.063+118+112.522+118+114L118+295.5C118+301.022+122.478+305.5+128+305.5C133.522+305.5+138+301.022+138+295.5L138+124L305.667+124C311.189+124+315.667+119.523+315.667+114C315.667+108.477+311.189+104+305.667+104L143.788+104L157.97+74L354.03+74L374+116.245L374+442L138+442L138+378C138+372.478+133.522+368+128+368C122.478+368+118+372.478+118+378L118+452C118+453.478+118.327+454.938+118.959+456.273L136.489+493.356C133.509+495.088+131.5+498.306+131.5+502C131.5+507.522+135.978+512+141.5+512L151.636+512L360.365+512L370.5+512C376.022+512+380.5+507.522+380.5+502C380.5+498.306+378.491+495.088+375.512+493.356L393.041+456.273C393.673+454.937+394+453.477+394+452L394+114C394+112.522+393.673+111.063+393.041+109.726ZM280.832+24.53L275.85+54L236.15+54L231.168+24.53C230.906+22.984+231.596+21.891+232.03+21.377C232.464+20.863+233.428+20+234.996+20L277.004+20C278.572+20+279.535+20.862+279.97+21.376C280.405+21.89+281.094+22.983+280.832+24.53ZM354.03+492L157.97+492L143.788+462L368.212+462L354.03+492Z" opacity="1" fill="#fefafa"/>
<path d="M352.71+106.93C350.859+105.07+348.279+104+345.64+104C343.01+104+340.44+105.07+338.57+106.93C336.711+108.79+335.64+111.37+335.64+114C335.64+116.63+336.71+119.21+338.57+121.07C340.44+122.93+343.01+124+345.64+124C348.279+124+350.859+122.93+352.71+121.07C354.58+119.21+355.649+116.63+355.649+114C355.649+111.37+354.58+108.79+352.71+106.93Z" opacity="1" fill="#fefafa"/>
<path d="M258.667+27L253.333+27C247.811+27+243.333+31.477+243.333+37C243.333+42.523+247.811+47+253.333+47L258.667+47C264.189+47+268.667+42.523+268.667+37C268.667+31.477+264.189+27+258.667+27Z" opacity="1" fill="#fefafa"/>
<path d="M256+199C209.683+199+172+236.682+172+283C172+329.317+209.683+367+256+367C302.317+367+340+329.317+340+283C340+236.682+302.317+199+256+199ZM256+347C220.71+347+192+318.29+192+283C192+247.71+220.71+219+256+219C291.29+219+320+247.71+320+283C320+318.29+291.29+347+256+347Z" opacity="1" fill="#fefafa"/>
</g>
</svg>
