<?xml version="1.0" encoding="UTF-8" standalone="no"?> <!-- Created with Vectornator for iOS (http://vectornator.io/) --><!DOCTYPE svg PUBLIC "-//W3C//DTD SVG 1.1//EN" "http://www.w3.org/Graphics/SVG/1.1/DTD/svg11.dtd">
<svg style="fill-rule:evenodd;clip-rule:evenodd;stroke-linecap:round;stroke-linejoin:round;" xmlns:vectornator="http://vectornator.io" xmlns:xlink="http://www.w3.org/1999/xlink" xmlns="http://www.w3.org/2000/svg" xml:space="preserve" version="1.1" viewBox="0 0 512 512">
<metadata>
<vectornator:setting key="DynamicGuides" value="1"/>
<vectornator:setting key="Units" value="Points"/>
<vectornator:setting key="GuidesVisible" value="1"/>
<vectornator:setting key="RulersVisible" value="1"/>
<vectornator:setting key="SnapToGuides" value="1"/>
<vectornator:setting key="GridSpacing" value="36"/>
</metadata>
<defs/>
<g id="Untitled" vectornator:layerName="Untitled">
<path d="M116.001+312.002C110.481+312.002+106.001+316.482+106.001+322.002C106.001+327.522+110.481+332.002+116.001+332.002C121.521+332.002+126.001+327.522+126.001+322.002C126.001+316.482+121.521+312.002+116.001+312.002Z" opacity="1" fill="#f8f2f2"/>
<path d="M435.999+120.003L336+120.003C330.478+120.003+326+124.48+326+130.003L326+322.002C326+360.6+294.598+392.002+256+392.002C217.475+392.002+186+360.834+186+322.002L186+130.003C186+124.48+181.522+120.003+176+120.003L76.001+120.003C70.479+120.003+66.001+124.48+66.001+130.003L66.001+322.002C66.001+426.767+151.234+512+256+512C360.766+512+445.999+426.767+445.999+322.001L445.999+130.003C445.999+124.48+441.521+120.003+435.999+120.003ZM86.001+140.003L166.001+140.003L166.001+212.003L86.001+212.003L86.001+140.003ZM425.999+322.002C425.999+415.739+349.737+492.001+256+492.001C162.263+492.001+86.001+415.739+86.001+322.002L86.001+232.003L166.001+232.003L166.001+322.002C166.001+371.535+206.075+412.002+256+412.002C305.626+412.002+345.999+371.628+345.999+322.002L345.999+232.003L425.999+232.003C425.999+232.003+425.999+322.002+425.999+322.002ZM425.999+212.002L345.999+212.002L345.999+140.002L425.999+140.002L425.999+212.002Z" opacity="1" fill="#f8f2f2"/>
<path d="M177.53+425.577C155.493+408.838+139.073+385.11+131.292+358.768C129.727+353.471+124.166+350.442+118.868+352.01C113.572+353.574+110.546+359.136+112.11+364.433C121.089+394.833+140.026+422.204+165.432+441.503C169.828+444.843+176.103+443.988+179.444+439.589C182.785+435.192+181.928+428.918+177.53+425.577Z" opacity="1" fill="#f8f2f2"/>
<path d="M144.508+44.746C142.686+41.798+139.467+40.003+136.001+40.003L112.182+40.003L124.946+14.475C127.415+9.535+125.413+3.528+120.473+1.058C115.534-1.413+109.527+0.589999+107.057+5.53L87.057+45.53C85.507+48.63+85.673+52.311+87.495+55.259C89.317+58.207+92.536+60.002+96.002+60.002L119.821+60.002L107.057+85.53C104.587+90.47+106.589+96.477+111.53+98.947C116.486+101.425+122.485+99.398+124.946+94.475L144.946+54.475C146.496+51.375+146.33+47.694+144.508+44.746Z" opacity="1" fill="#f8f2f2"/>
<path d="M424.506+44.746C422.684+41.798+419.465+40.003+415.999+40.003L392.18+40.003L404.944+14.475C407.413+9.535+405.411+3.528+400.471+1.058C395.532-1.413+389.525+0.589999+387.055+5.53L367.055+45.53C365.505+48.63+365.671+52.311+367.493+55.259C369.315+58.207+372.534+60.002+376+60.002L399.819+60.002L387.055+85.53C384.585+90.47+386.587+96.477+391.528+98.947C396.484+101.425+402.483+99.398+404.944+94.475L424.944+54.475C426.494+51.375+426.328+47.694+424.506+44.746Z" opacity="1" fill="#f8f2f2"/>
</g>
</svg>
