<?xml version="1.0" encoding="UTF-8" standalone="no"?> <!-- Created with Vectornator for iOS (http://vectornator.io/) --><!DOCTYPE svg PUBLIC "-//W3C//DTD SVG 1.1//EN" "http://www.w3.org/Graphics/SVG/1.1/DTD/svg11.dtd">
<svg style="fill-rule:evenodd;clip-rule:evenodd;stroke-linecap:round;stroke-linejoin:round;" xmlns:vectornator="http://vectornator.io" xmlns:xlink="http://www.w3.org/1999/xlink" xmlns="http://www.w3.org/2000/svg" xml:space="preserve" version="1.1" viewBox="0 0 512 512">
<metadata>
<vectornator:setting key="DynamicGuides" value="1"/>
<vectornator:setting key="Units" value="Points"/>
<vectornator:setting key="GuidesVisible" value="1"/>
<vectornator:setting key="RulersVisible" value="1"/>
<vectornator:setting key="SnapToGuides" value="1"/>
<vectornator:setting key="GridSpacing" value="36"/>
</metadata>
<defs/>
<g id="Outline" vectornator:layerName="Outline">
<path d="M436.59+178.316L416+149.441L416+112C416+107.582+412.418+104+408+104L360+104C355.582+104+352+107.582+352+112L352+149.441L331.418+178.305C329.165+181.452+327.089+184.722+325.2+188.1L339.169+195.9C340.768+193.037+342.526+190.266+344.435+187.6L366.513+156.64C367.479+155.286+367.999+153.664+368+152L368+120L400+120L400+152C400+153.665+400.521+155.289+401.488+156.645L423.588+187.637C428.085+193.911+431.722+200.76+434.4+208L376+208L376+224L438.6+224C439.477+228.886+439.945+233.836+440+238.8L440+240L376+240L376+256L440+256L440+272L376+272L376+288L436.893+288L434.969+293.871C431.014+305.621+431.01+318.342+434.957+330.094L437.852+338.926C439.266+343.14+439.992+347.555+440+352L376+352L376+368L440+368L440+384L376+384L376+400L440+400L440+416L376+416L376+432L440+432L440+464C439.991+472.833+432.833+479.991+424+480L406.641+480C404.5+480.001+402.448+479.146+400.941+477.625C391.489+468.509+376.517+468.509+367.065+477.625L378.378+488.938C381.499+485.867+386.507+485.867+389.628+488.938C394.129+493.469+400.255+496.012+406.641+496L424+496C441.665+495.98+455.98+481.665+456+464L456+352C455.993+345.849+454.994+339.739+453.043+333.906L450.148+325.074C447.28+316.581+447.284+307.381+450.16+298.891L453.06+290.047C453.983+287.149+454.722+284.195+455.271+281.203C455.744+278.158+455.988+275.082+456+272L456+238.8C455.987+230.482+454.999+222.195+453.055+214.108C449.936+201.224+444.344+189.068+436.59+178.316Z" opacity="1" fill="#fff8f8"/>
<path d="M56+192L56+434C56.038+468.226+83.7741+495.962+118+496C131.428+496.041+144.499+491.682+155.215+483.59C162.795+477.91+173.213+477.91+180.793+483.59C190.887+491.194+203.074+495.511+215.703+495.957L216.297+479.965C206.935+479.641+197.899+476.443+190.418+470.805C177.131+460.858+158.877+460.858+145.59+470.805C137.645+476.803+127.954+480.032+118+480C92.6072+479.97+72.0298+459.393+72+434L72+392L216+392L216+376L72+376L72+216L248+216L248+200L72+200L72+192C71.9255+150.334+98.7977+113.399+138.465+100.648C141.766+99.5813+144.001+96.5076+144+93.039L144+72L192+72L192+93.039C191.999+96.5076+194.234+99.5813+197.535+100.648C234.641+112.538+260.823+145.752+263.719+184.609L279.672+183.391C276.462+140.181+248.514+102.741+208+87.379L208+72L224+72L224+56L208+56L208+24C208+19.5817+204.418+16+200+16L136+16C131.582+16+128+19.5817+128+24L128+56L112+56L112+72L128+72L128+87.379C84.5805+103.889+55.911+145.548+56+192ZM144+32L192+32L192+56L144+56L144+32Z" opacity="1" fill="#fff8f8"/>
<path d="M123.57+125.461L132.43+138.781C137.346+135.518+142.686+132.945+148.301+131.133L143.379+115.906C136.37+118.17+129.705+121.385+123.57+125.461Z" opacity="1" fill="#fff8f8"/>
<path d="M104.391+184.879C105.953+170.912+112.062+157.846+121.777+147.691L110.238+136.6C98.087+149.304+90.4441+165.646+88.484+183.116L104.391+184.879Z" opacity="1" fill="#fff8f8"/>
<path d="M88+232L104+232L104+232L104+248L104+248L88+248L88+248L88+232L88+232Z" opacity="1" fill="#fff8f8"/>
<path d="M88+264L104+264L104+264L104+336L104+336L88+336L88+336L88+264L88+264Z" opacity="1" fill="#fff8f8"/>
<path d="M264+280L280+280L280+280L280+304L280+304L264+304L264+304L264+280L264+280Z" opacity="1" fill="#fff8f8"/>
<path d="M296+192C278.055+192+264+202.543+264+216L264+243.062L245.3+252.445C237.136+256.485+231.979+264.814+232+273.922L232+312C232+313.242+232.289+314.467+232.844+315.578L239.055+328L232.844+340.422C232.289+341.533+232+342.758+232+344L232+360C232+361.242+232.289+362.467+232.844+363.578L239.055+376L232.844+388.422C232.289+389.533+232+390.758+232+392L232+408C232+409.242+232.289+410.467+232.844+411.578L239.055+424L232.844+436.422C232.289+437.533+232+438.758+232+440L232+472C232.02+485.246+242.754+495.98+256+496L336+496C337.829+495.992+339.653+495.786+341.438+495.387C352.319+492.869+360.018+483.169+360+472L360+440C360+438.758+359.711+437.533+359.156+436.422L352.945+424L359.156+411.578C359.711+410.467+360+409.242+360+408L360+392C360+390.758+359.711+389.533+359.156+388.422L352.945+376L359.156+363.578C359.711+362.467+360+361.242+360+360L360+344C360+342.758+359.711+341.533+359.156+340.422L352.945+328L359.156+315.578C359.711+314.467+360+313.242+360+312L360+273.922C360.023+264.817+354.868+256.491+346.707+252.453L328+243.062L328+216C328+202.543+313.945+192+296+192ZM296+208C305.766+208+312+212.738+312+216C312+219.262+305.766+224+296+224C286.234+224+280+219.262+280+216C280+212.738+286.234+208+296+208ZM339.543+266.758C342.273+268.101+344.002+270.879+344+273.922L344+310.113L339.055+320L272+320L272+336L339.055+336L344+345.887L344+358.113L339.055+368L272+368L272+384L339.055+384L344+393.887L344+406.113L339.055+416L272+416L272+432L339.055+432L344+441.887L344+472C343.977+475.667+341.489+478.859+337.938+479.777C337.302+479.919+336.652+479.993+336+480L256+480C253.497+479.99+251.143+478.812+249.633+476.816C248.57+475.436+247.996+473.742+248+472L248+441.887L255.156+427.578C256.281+425.325+256.281+422.675+255.156+420.422L248+406.113L248+393.887L255.156+379.578C256.281+377.325+256.281+374.675+255.156+372.422L248+358.113L248+345.887L255.156+331.578C256.281+329.325+256.281+326.675+255.156+324.422L248+310.113L248+273.922C248+270.876+249.731+268.094+252.465+266.75L275.586+255.15C278.293+253.795+280.002+251.027+280+248L280+236.764C290.23+241.079+301.77+241.079+312+236.764L312+248C311.999+251.026+313.708+253.793+316.414+255.148L339.543+266.758Z" opacity="1" fill="#fff8f8"/>
</g>
</svg>
