<?xml version="1.0" encoding="UTF-8" standalone="no"?> <!-- Created with Vectornator for iOS (http://vectornator.io/) --><!DOCTYPE svg PUBLIC "-//W3C//DTD SVG 1.1//EN" "http://www.w3.org/Graphics/SVG/1.1/DTD/svg11.dtd">
<svg style="fill-rule:evenodd;clip-rule:evenodd;stroke-linecap:round;stroke-linejoin:round;" xmlns:vectornator="http://vectornator.io" xmlns:xlink="http://www.w3.org/1999/xlink" xmlns="http://www.w3.org/2000/svg" xml:space="preserve" version="1.1" viewBox="0 0 64 64">
<metadata>
<vectornator:setting key="DynamicGuides" value="1"/>
<vectornator:setting key="Units" value="Points"/>
<vectornator:setting key="GuidesVisible" value="1"/>
<vectornator:setting key="RulersVisible" value="1"/>
<vectornator:setting key="SnapToGuides" value="1"/>
<vectornator:setting key="GridSpacing" value="36"/>
</metadata>
<defs/>
<g id="Untitled" vectornator:layerName="Untitled">
<path d="M50+22L18.958+22L33.707+7.251C33.895+7.063+34+6.809+34+6.544C34+6.279+33.895+6.024+33.707+5.837L30.879+3.009C29.745+1.875+27.769+1.875+26.636+3.009L24.352+5.293L25.766+6.707L28.051+4.423C28.428+4.045+29.087+4.045+29.465+4.423L31.587+6.544L7.544+30.586L5.423+28.464C5.234+28.276+5.13+28.025+5.13+27.757C5.13+27.489+5.234+27.239+5.423+27.05L23.766+8.707L22.352+7.293L20.979+8.666L19.565+7.252C18.394+6.081+16.491+6.082+15.322+7.252L8.251+14.323C7.081+15.493+7.081+17.396+8.251+18.566L9.665+19.98L4.008+25.637C3.441+26.204+3.129+26.957+3.129+27.759C3.129+28.561+3.441+29.314+4.008+29.88L6.836+32.709C7.024+32.895+7.279+33+7.544+33C7.809+33+8.064+32.895+8.251+32.707L13.569+27.389L17.78+59.392C17.976+60.878+19.254+62+20.754+62L43.246+62C44.746+62+46.024+60.878+46.221+59.391L49.676+33.13L47.693+32.869L44.238+59.129C44.172+59.626+43.746+60+43.246+60L20.754+60C20.254+60+19.828+59.626+19.763+59.13L15.352+25.606L16.958+24L48.86+24L48.219+28.87L50.202+29.131L50.992+23.131C51.03+22.845+50.943+22.558+50.753+22.341C50.562+22.124+50.288+22+50+22ZM9.666+17.151C9.276+16.761+9.276+16.127+9.666+15.736L16.737+8.665C17.126+8.276+17.761+8.275+18.152+8.665L19.566+10.079L11.081+18.564L9.666+17.151Z" opacity="1" fill="#faf4f4"/>
<path d="M29+31L29+53C29+54.654+30.346+56+32+56C33.654+56+35+54.654+35+53L35+31C35+29.346+33.654+28+32+28C30.346+28+29+29.346+29+31ZM33+31L33+53C33+53.551+32.551+54+32+54C31.449+54+31+53.551+31+53L31+31C31+30.449+31.449+30+32+30C32.551+30+33+30.449+33+31Z" opacity="1" fill="#faf4f4"/>
<path d="M21+31L21+53C21+54.654+22.346+56+24+56C25.654+56+27+54.654+27+53L27+31C27+29.346+25.654+28+24+28C22.346+28+21+29.346+21+31ZM25+31L25+53C25+53.551+24.551+54+24+54C23.449+54+23+53.551+23+53L23+31C23+30.449+23.449+30+24+30C24.551+30+25+30.449+25+31Z" opacity="1" fill="#faf4f4"/>
<path d="M37+31L37+53C37+54.654+38.346+56+40+56C41.654+56+43+54.654+43+53L43+31C43+29.346+41.654+28+40+28C38.346+28+37+29.346+37+31ZM41+31L41+53C41+53.551+40.551+54+40+54C39.449+54+39+53.551+39+53L39+31C39+30.449+39.449+30+40+30C40.551+30+41+30.449+41+31Z" opacity="1" fill="#faf4f4"/>
<path d="M37.243+13.03L33.243+12.03C32.852+11.933+32.441+12.079+32.201+12.4L29.201+16.4C29.023+16.637+28.959+16.941+29.028+17.23C29.096+17.519+29.289+17.762+29.554+17.895L33.554+19.895C33.691+19.964+33.845+20+34+20L39+20C39.332+20+39.642+19.835+39.828+19.561C40.014+19.287+40.052+18.937+39.929+18.629L37.929+13.629C37.809+13.331+37.554+13.108+37.243+13.03ZM34.236+18L31.519+16.642L33.402+14.132L36.261+14.847L37.523+18L34.236+18Z" opacity="1" fill="#faf4f4"/>
<path d="M49.854+11.472L48.895+9.553C48.693+9.149+48.244+8.931+47.804+9.02L42.804+10.02C42.336+10.113+42+10.523+42+11L42+13C42+13.082+42.01+13.163+42.03+13.243L43.03+17.243C43.142+17.692+43.546+18+43.999+18C44.041+18+44.082+17.998+44.124+17.992L52.124+16.992C52.478+16.948+52.781+16.719+52.92+16.39C53.059+16.061+53.013+15.684+52.799+15.399L49.854+11.472ZM44.755+15.898L44+12.877L44+11.82L47.447+11.131L48.105+12.448C48.132+12.502+48.164+12.553+48.2+12.601L50.166+15.223L44.755+15.898Z" opacity="1" fill="#faf4f4"/>
<path d="M44+2L46+2L46+4L44+4L44+2Z" opacity="1" fill="#faf4f4"/>
<path d="M52.804+8.207L54.023+9.793C56.234+8.095+59.071+7.435+61.804+7.98L62.197+6.019C58.893+5.359+55.471+6.157+52.804+8.207Z" opacity="1" fill="#faf4f4"/>
<path d="M57+12L59+12L59+14L57+14L57+12Z" opacity="1" fill="#faf4f4"/>
<path d="M48+7L50+7C50+5.346+51.346+4+53+4L53+2C50.243+2+48+4.243+48+7Z" opacity="1" fill="#faf4f4"/>
</g>
</svg>
