<?xml version="1.0" encoding="UTF-8" standalone="no"?> <!-- Created with Vectornator for iOS (http://vectornator.io/) --><!DOCTYPE svg PUBLIC "-//W3C//DTD SVG 1.1//EN" "http://www.w3.org/Graphics/SVG/1.1/DTD/svg11.dtd">
<svg style="fill-rule:evenodd;clip-rule:evenodd;stroke-linecap:round;stroke-linejoin:round;" xmlns:vectornator="http://vectornator.io" xmlns:xlink="http://www.w3.org/1999/xlink" xmlns="http://www.w3.org/2000/svg" xml:space="preserve" version="1.1" viewBox="0 0 64 64">
<metadata>
<vectornator:setting key="DynamicGuides" value="1"/>
<vectornator:setting key="Units" value="Points"/>
<vectornator:setting key="GuidesVisible" value="1"/>
<vectornator:setting key="RulersVisible" value="1"/>
<vectornator:setting key="SnapToGuides" value="1"/>
<vectornator:setting key="GridSpacing" value="36"/>
</metadata>
<defs/>
<g id="smart garbage" vectornator:layerName="smart garbage">
<path d="M59+32L57.754+32L54.326+20L55+20C56.6569+20+58+18.6569+58+17C58+15.3431+56.6569+14+55+14L48+14L48+10L50.026+10C50.9624+11.2546+52.4345+11.9954+54+12L54+10C52.7332+9.99475+51.6063+9.19435+51.184+8L56+8L56+6L51.184+6C51.6063+4.80565+52.7332+4.00525+54+4L54+2C52.4345+2.00456+50.9624+2.74543+50.026+4L46+4C44.3431+4+43+5.34315+43+7C43.0082+8.65344+44.3466+9.99179+46+10L46+14L40+14C40+12.3431+38.6569+11+37+11L3+11C2.44772+11+2+11.4477+2+12L2+14C2.00001+14.4587+2.31207+14.8585+2.757+14.97L9.044+16.542L2.293+23.293C2.10545+23.4805+2.00006+23.7348+2+24L2+53C2+54.6569+3.34315+56+5+56L6.08+56C6.5743+59.4418+9.5229+61.9972+13+61.9972C16.4771+61.9972+19.4257+59.4418+19.92+56L22.08+56C22.5743+59.4418+25.5229+61.9972+29+61.9972C32.4771+61.9972+35.4257+59.4418+35.92+56L44.08+56C44.5743+59.4418+47.5229+61.9972+51+61.9972C54.4771+61.9972+57.4257+59.4418+57.92+56L59+56C60.6569+56+62+54.6569+62+53L62+35C62+33.3431+60.6569+32+59+32ZM45.288+7.694C45.1014+7.5116+44.9974+7.26092+45+7C45+6.44772+45.4477+6+46+6L49.1+6C48.9653+6.65986+48.9653+7.34014+49.1+8L46+8C45.7306+8.00087+45.4728+7.89009+45.288+7.694ZM42+32L40+32L40+26L42+26L42+32ZM43+24L40+24L40+20L52.246+20L55.674+32L44+32L44+25C44+24.4477+43.5523+24+43+24ZM55+16C55.5523+16+56+16.4477+56+17C56+17.5523+55.5523+18+55+18L40+18L40+16L55+16ZM40+38L42+38L42+40L40+40L40+38ZM4+13.219L4+13L12.586+13L10.693+14.893L4+13.219ZM15.414+13L37+13C37.5523+13+38+13.4477+38+14L38+47L35.414+47L33.707+45.293C33.5195+45.1055+33.2652+45.0001+33+45L24+45C23.7348+45.0001+23.4805+45.1055+23.293+45.293L21.586+47L20.414+47L18.707+45.293C18.5195+45.1055+18.2652+45.0001+18+45L9+45C8.73481+45.0001+8.48049+45.1055+8.293+45.293L6.586+47L4+47L4+24.414L15.414+13ZM13+60C10.2386+60+8+57.7614+8+55C8+52.2386+10.2386+50+13+50C15.7614+50+18+52.2386+18+55C17.9967+57.7601+15.7601+59.9967+13+60ZM29+60C26.2386+60+24+57.7614+24+55C24+52.2386+26.2386+50+29+50C31.7614+50+34+52.2386+34+55C33.9967+57.7601+31.7601+59.9967+29+60ZM35.92+54C35.4257+50.5582+32.4771+48.0028+29+48.0028C25.5229+48.0028+22.5743+50.5582+22.08+54L19.92+54C19.4257+50.5582+16.4771+48.0028+13+48.0028C9.5229+48.0028+6.5743+50.5582+6.08+54L5+54C4.44772+54+4+53.5523+4+53L4+49L7+49C7.26519+48.9999+7.51951+48.8945+7.707+48.707L9.414+47L17.586+47L19.293+48.707C19.4805+48.8945+19.7348+48.9999+20+49L22+49C22.2652+48.9999+22.5195+48.8945+22.707+48.707L24.414+47L32.586+47L34.293+48.707C34.4805+48.8945+34.7348+48.9999+35+49L38+49L38+54L35.92+54ZM51+60C48.2386+60+46+57.7614+46+55C46+52.2386+48.2386+50+51+50C53.7614+50+56+52.2386+56+55C55.9967+57.7601+53.7601+59.9967+51+60ZM59+54L57.92+54C57.4257+50.5582+54.4771+48.0028+51+48.0028C47.5229+48.0028+44.5743+50.5582+44.08+54L40+54L40+42L43+42C43.5523+42+44+41.5523+44+41L44+37C44+36.4477+43.5523+36+43+36L40+36L40+34L59+34C59.5523+34+60+34.4477+60+35L60+36L57+36C55.3431+36+54+37.3431+54+39C54+40.6569+55.3431+42+57+42L60+42L60+53C60+53.5523+59.5523+54+59+54ZM60+38L60+40L57+40C56.4477+40+56+39.5523+56+39C56+38.4477+56.4477+38+57+38L60+38Z" opacity="1" fill="#fffcfc"/>
<path d="M13+52C11.3431+52+10+53.3431+10+55C10+56.6569+11.3431+58+13+58C14.6569+58+16+56.6569+16+55C16+53.3431+14.6569+52+13+52ZM13+56C12.4477+56+12+55.5523+12+55C12+54.4477+12.4477+54+13+54C13.5523+54+14+54.4477+14+55C14+55.5523+13.5523+56+13+56Z" opacity="1" fill="#fffcfc"/>
<path d="M29+52C27.3431+52+26+53.3431+26+55C26+56.6569+27.3431+58+29+58C30.6569+58+32+56.6569+32+55C32+53.3431+30.6569+52+29+52ZM29+56C28.4477+56+28+55.5523+28+55C28+54.4477+28.4477+54+29+54C29.5523+54+30+54.4477+30+55C30+55.5523+29.5523+56+29+56Z" opacity="1" fill="#fffcfc"/>
<path d="M51+52C49.3431+52+48+53.3431+48+55C48+56.6569+49.3431+58+51+58C52.6569+58+54+56.6569+54+55C54+53.3431+52.6569+52+51+52ZM51+56C50.4477+56+50+55.5523+50+55C50+54.4477+50.4477+54+51+54C51.5523+54+52+54.4477+52+55C52+55.5523+51.5523+56+51+56Z" opacity="1" fill="#fffcfc"/>
<path d="M17+41L25+41C26.6569+41+28+39.6569+28+38L28+26C27.9977+25.6231+27.7819+25.2801+27.443+25.115L27.443+25.105L22.46+22.612L23.832+20.555L22.168+19.445L20.658+21.711L15.447+19.105L14.553+20.895L22.764+25L17+25C15.3431+25+14+26.3431+14+28L14+38C14+39.6569+15.3431+41+17+41ZM16+28C16+27.4477+16.4477+27+17+27L26+27L26+38C26+38.5523+25.5523+39+25+39L17+39C16.4477+39+16+38.5523+16+38L16+28Z" opacity="1" fill="#fffcfc"/>
<path d="M18+29L20+29L20+29L20+37L20+37L18+37L18+37L18+29L18+29Z" opacity="1" fill="#fffcfc"/>
<path d="M22+29L24+29L24+29L24+37L24+37L22+37L22+37L22+29L22+29Z" opacity="1" fill="#fffcfc"/>
</g>
</svg>
